<?xml version="1.0" standalone="no"?>
<!DOCTYPE svg PUBLIC "-//W3C//DTD SVG 1.1//EN" "http://www.w3.org/Graphics/SVG/1.1/DTD/svg11.dtd" >
<svg xmlns="http://www.w3.org/2000/svg" xmlns:xlink="http://www.w3.org/1999/xlink" version="1.1">
<metadata>
Created by FontForge 20150618 at Sun Jun 28 22:06:30 2015
 By System Administrator
(C)2002 House Industries/Brand Design Co. Inc.
</metadata>
<defs>
<font id="NeutraText-DemiItalicAlt" horiz-adv-x="222" >
  <font-face 
    font-family="Neutra Text Light Alt"
    font-weight="500"
    font-style="italic"
    font-stretch="normal"
    units-per-em="1000"
    panose-1="2 0 0 0 0 0 0 0 0 0"
    ascent="800"
    descent="-200"
    x-height="420"
    cap-height="680"
    bbox="-128 -236 1240 954"
    underline-thickness="20"
    underline-position="-133"
    slope="-12"
    stemh="86"
    stemv="106"
    unicode-range="U+000D-FB02"
  />
<missing-glyph horiz-adv-x="500" 
 />
    <glyph glyph-name="fi" unicode="fi" horiz-adv-x="538" 
d="M476 520c-34 0 -63 25 -63 63c0 36 29 61 62 61s62 -25 62 -61c0 -38 -28 -63 -61 -63zM222 337l-76 -434c-17 -100 -57 -115 -134 -115h-55l15 77h35c20 0 35 6 42 45l75 427h-68l15 83h68l30 174c17 94 63 141 145 141c49 0 81 -17 107 -47l-63 -61
c-11 13 -20 19 -40 19c-25 0 -43 -12 -51 -56l-30 -170h259l-55 -315c-4 -20 1 -29 18 -29h36l-13 -76h-50c-77 0 -104 26 -90 107l40 230h-160z" />
    <glyph glyph-name="fl" unicode="fl" horiz-adv-x="535" 
d="M432 0c-78 0 -105 26 -90 107l108 615h99l-109 -617c-3 -20 2 -29 19 -29h42l-13 -76h-56zM124 337h-68l15 83h68l30 173c17 96 63 142 140 142c42 0 74 -14 95 -37l-48 -68c-9 9 -20 16 -39 16c-24 0 -42 -12 -50 -56l-30 -170h94l-14 -83h-95l-76 -434
c-17 -100 -57 -115 -134 -115h-55l15 77h35c20 0 35 6 42 45z" />
    <glyph glyph-name="ff" unicode="ff" horiz-adv-x="597" 
d="M383 337h-161l-76 -434c-17 -100 -57 -115 -134 -115h-55l15 77h35c20 0 35 6 42 45l75 427h-68l15 83h68l27 154c17 95 63 141 144 141c45 0 74 -14 96 -38l-53 -67c-11 11 -23 16 -39 16c-25 0 -42 -12 -50 -55l-27 -151h161l30 173c17 95 64 142 147 142
c53 0 88 -19 115 -54l-64 -59c-11 14 -24 24 -47 24c-26 0 -45 -12 -53 -57l-30 -169h109l-15 -83h-109l-72 -411c-18 -100 -57 -115 -134 -115h-50l14 77h30c20 0 36 7 43 45z" />
    <glyph glyph-name="ffi" unicode="ffi" horiz-adv-x="797" 
d="M734 520c-33 0 -62 25 -62 63c0 36 28 61 62 61c33 0 62 -25 62 -61c0 -38 -28 -63 -62 -63zM481 337l-72 -411c-18 -100 -57 -115 -134 -115h-50l14 77h30c20 0 35 7 42 45l71 404h-160l-76 -434c-17 -100 -57 -115 -134 -115h-55l15 77h35c20 0 35 6 42 45l75 427h-68
l15 83h68l27 154c17 95 63 141 144 141c45 0 74 -14 96 -38l-53 -67c-11 11 -23 16 -39 16c-25 0 -42 -12 -50 -55l-27 -151h160l31 174c17 94 63 141 145 141c49 0 81 -17 107 -47l-63 -61c-11 13 -20 19 -40 19c-25 0 -43 -12 -51 -56l-30 -170h259l-56 -315
c-3 -20 2 -29 19 -29h36l-14 -76h-49c-78 0 -105 26 -90 107l40 230h-160z" />
    <glyph glyph-name="ffl" unicode="ffl" horiz-adv-x="794" 
d="M691 0c-78 0 -105 26 -91 107l109 615h99l-109 -617c-3 -20 1 -29 19 -29h41l-13 -76h-55zM382 337h-159l-76 -434c-18 -100 -58 -115 -135 -115h-55l15 77h35c20 0 35 6 42 45l75 427h-68l15 83h68l27 154c17 95 63 141 144 141c45 0 74 -14 96 -38l-53 -67
c-11 11 -23 16 -39 16c-25 0 -42 -12 -50 -55l-26 -151h159l31 173c17 96 63 142 140 142c42 0 74 -14 95 -37l-48 -68c-9 9 -20 16 -39 16c-24 0 -42 -12 -50 -56l-30 -170h94l-14 -83h-95l-72 -411c-17 -100 -57 -115 -134 -115h-50l14 77h30c20 0 35 7 42 45z" />
    <glyph glyph-name=".notdef" horiz-adv-x="500" 
 />
    <glyph glyph-name=".notdef" horiz-adv-x="500" 
 />
    <glyph glyph-name="space" unicode=" " horiz-adv-x="219" 
 />
    <glyph glyph-name="exclam" unicode="!" horiz-adv-x="251" 
d="M84 210l70 470h112l-105 -470h-77zM100 -6c-36 0 -66 28 -66 67s30 67 66 67c35 0 66 -28 66 -67s-31 -67 -66 -67z" />
    <glyph glyph-name="quotedbl" unicode="&#x22;" horiz-adv-x="338" 
d="M250 452l28 228h107l-54 -228h-81zM92 452l29 228h106l-54 -228h-81z" />
    <glyph glyph-name="numbersign" unicode="#" horiz-adv-x="454" 
d="M160 500h-74l14 77s80 0 79 0l26 103h80l-26 -103h85l26 103h79l-26 -103h64l-14 -77h-69l-23 -94h75l-14 -77h-80l-26 -105h-80l26 105h-85l-26 -105h-79l26 105h-62l13 77h68zM324 500h-85c1 0 -23 -94 -23 -94h85c0 0 24 94 23 94z" />
    <glyph glyph-name="dollar" unicode="$" horiz-adv-x="525" 
d="M192 -5c-94 15 -155 73 -190 129l83 58c28 -44 62 -85 123 -97l40 228l-6 4c-88 47 -136 108 -134 191c0 104 79 180 199 180h8l15 85h55l-16 -92c55 -12 98 -44 129 -92l-80 -55c-17 28 -38 47 -65 56l-35 -196l12 -6c92 -51 148 -109 148 -199
c0 -127 -92 -195 -231 -198l-19 -107h-56zM299 599c-53 -1 -91 -36 -91 -85c0 -37 17 -63 60 -90zM263 82c71 6 111 42 111 102c0 42 -23 70 -75 100z" />
    <glyph glyph-name="percent" unicode="%" horiz-adv-x="871" 
d="M245 338c-93 0 -166 71 -166 170c0 107 85 180 179 180c93 0 168 -71 168 -169c0 -109 -86 -181 -181 -181zM144 0l529 680h101l-528 -680h-102zM659 -9c-93 0 -166 71 -166 170c0 108 86 180 179 180s168 -71 168 -169c0 -108 -86 -181 -181 -181zM247 416
c48 0 90 37 90 103c0 55 -33 91 -81 91s-89 -38 -89 -102c0 -56 32 -92 80 -92zM661 70c48 0 90 36 90 102c0 55 -33 91 -81 91s-89 -37 -89 -102c0 -56 32 -91 80 -91z" />
    <glyph glyph-name="ampersand" unicode="&#x26;" horiz-adv-x="664" 
d="M360 377l105 -166c23 42 40 94 48 154h92c-13 -95 -44 -175 -88 -236l6 -10c16 -27 28 -34 51 -34h44l-15 -85h-42c-58 0 -86 16 -115 55c-53 -42 -117 -64 -186 -64c-143 0 -225 78 -225 184c0 109 77 171 194 223c-31 52 -40 93 -40 135c0 90 67 155 170 155
c88 0 149 -59 149 -140c0 -72 -53 -127 -148 -171zM322 437c64 29 96 62 96 107c0 38 -24 64 -60 64c-42 0 -70 -30 -70 -74c0 -33 12 -60 26 -84zM398 130l-131 207c-79 -38 -124 -84 -124 -155c0 -60 46 -101 116 -101c53 0 100 17 139 49z" />
    <glyph glyph-name="quoteright" unicode="&#x2019;" horiz-adv-x="215" 
d="M98 452l56 114c-22 11 -36 30 -36 58c0 37 30 64 64 64c35 0 63 -27 63 -65c0 -22 -10 -43 -25 -64l-71 -107h-51z" />
    <glyph glyph-name="parenleft" unicode="(" horiz-adv-x="306" 
d="M160 -134c-58 74 -113 194 -113 341c0 262 142 414 261 512l48 -55c-115 -106 -206 -257 -206 -457c0 -130 32 -222 77 -299z" />
    <glyph glyph-name="parenright" unicode=")" horiz-adv-x="305" 
d="M30 -134l-50 54c115 107 206 257 206 459c0 129 -31 220 -76 297l66 43c58 -75 113 -193 113 -340c0 -264 -141 -416 -259 -513z" />
    <glyph glyph-name="asterisk" unicode="*" horiz-adv-x="406" 
d="M201 366l34 121l-97 -68l-35 79l117 29l-111 50l50 70l83 -85l-12 118h90l-35 -120l97 70l35 -80l-118 -28l111 -50l-50 -70l-82 83l12 -119h-89z" />
    <glyph glyph-name="plus" unicode="+" horiz-adv-x="417" 
d="M266 278l-25 -138h-88l24 138h-126l15 86h126l25 137h88l-24 -137h126l-15 -86h-126z" />
    <glyph glyph-name="comma" unicode="," horiz-adv-x="218" 
d="M-4 -113l59 116c-21 10 -36 30 -36 60c0 38 30 67 66 67c37 0 66 -29 66 -68c0 -23 -11 -42 -26 -64l-77 -111h-52z" />
    <glyph glyph-name="hyphen" unicode="-" horiz-adv-x="284" 
d="M37 193l15 87h207l-16 -87h-206z" />
    <glyph glyph-name="hyphen" unicode="&#xad;" horiz-adv-x="284" 
d="M37 193l15 87h207l-16 -87h-206z" />
    <glyph glyph-name="period" unicode="." horiz-adv-x="217" 
d="M84 -6c-35 0 -66 28 -66 67s31 68 66 68c36 0 66 -29 66 -68s-30 -67 -66 -67z" />
    <glyph glyph-name="slash" unicode="/" horiz-adv-x="407" 
d="M-55 -128l434 850h101l-434 -850h-101z" />
    <glyph glyph-name="zero" unicode="0" horiz-adv-x="709" 
d="M357 -9c-173 0 -295 131 -295 320c0 226 154 377 337 377c173 0 296 -130 296 -318c0 -227 -153 -379 -338 -379zM360 84c131 0 229 115 229 286c0 140 -75 225 -193 225c-130 0 -228 -115 -228 -285c0 -140 74 -226 192 -226z" />
    <glyph glyph-name="one" unicode="1" horiz-adv-x="322" 
d="M99 0l104 588h-107l16 92h209l-120 -680h-102z" />
    <glyph glyph-name="two" unicode="2" horiz-adv-x="529" 
d="M-18 0v9l318 294c81 75 126 126 126 194c0 57 -34 98 -104 98c-66 0 -111 -39 -135 -116l-101 20c30 128 127 189 240 189c126 0 203 -78 203 -189c0 -96 -59 -167 -146 -247l-133 -122c-24 -22 -63 -46 -63 -46s44 5 71 5h204l-16 -89h-464z" />
    <glyph glyph-name="three" unicode="3" horiz-adv-x="537" 
d="M249 -9c-126 0 -212 68 -245 149l91 42c26 -55 71 -98 152 -98c93 0 153 62 153 148c0 79 -52 144 -147 144c-30 0 -53 -6 -70 -11l-5 10l155 177c20 21 51 43 51 43s-39 -5 -63 -5h-198l16 90h412v-9l-170 -195c-18 -20 -44 -37 -44 -37c90 -14 168 -88 168 -209
c0 -143 -114 -239 -256 -239z" />
    <glyph glyph-name="four" unicode="4" horiz-adv-x="599" 
d="M487 197h80l-15 -84h-80l-20 -113h-103l20 113h-347l12 70l532 512h8zM384 197l36 204c6 33 19 76 19 76s-24 -37 -52 -66l-167 -168c-27 -26 -70 -52 -70 -52s44 6 75 6h159z" />
    <glyph glyph-name="five" unicode="5" horiz-adv-x="546" 
d="M259 -9c-118 0 -206 64 -243 147l90 46c27 -55 73 -100 153 -100c95 0 149 64 149 149c0 82 -52 143 -148 143c-66 0 -111 -23 -156 -54l-9 4l63 354h364l-16 -90h-275l-26 -144c21 10 51 16 85 16c136 0 223 -98 223 -227c0 -145 -102 -244 -254 -244z" />
    <glyph glyph-name="six" unicode="6" horiz-adv-x="566" 
d="M279 -9c-138 0 -235 100 -235 228c0 67 27 129 78 189l230 272h119l-153 -183c-27 -34 -67 -60 -67 -60c21 12 43 18 71 18c122 0 209 -93 209 -217c0 -142 -104 -247 -252 -247zM282 81c89 0 143 71 143 156c0 80 -48 138 -132 138c-91 0 -145 -71 -145 -153
c0 -76 48 -141 134 -141z" />
    <glyph glyph-name="seven" unicode="7" horiz-adv-x="543" 
d="M57 0l380 588h-342l16 92h492v-9l-431 -671h-115z" />
    <glyph glyph-name="eight" unicode="8" horiz-adv-x="571" 
d="M213 399c-37 24 -65 63 -65 118c0 100 89 171 199 171c108 0 184 -72 184 -161c0 -78 -52 -123 -108 -145c67 -31 112 -89 112 -169c0 -134 -104 -222 -254 -222c-146 0 -243 91 -243 210c0 111 77 175 175 198zM336 429c56 0 94 39 94 91c0 45 -34 81 -86 81
c-57 0 -95 -38 -95 -89c0 -46 33 -83 87 -83zM282 81c87 0 148 58 148 138c0 76 -54 126 -137 126c-85 0 -149 -56 -149 -136c0 -77 56 -128 138 -128z" />
    <glyph glyph-name="nine" unicode="9" horiz-adv-x="568" 
d="M150 0l147 178c27 34 68 62 68 62c-19 -11 -46 -19 -73 -19c-122 0 -210 96 -210 220c0 141 108 247 255 247c141 0 235 -97 235 -227c0 -69 -30 -135 -81 -196l-222 -265h-119zM322 302c88 0 146 73 146 155c0 77 -48 141 -135 141c-91 0 -146 -74 -146 -155
c0 -80 48 -141 135 -141z" />
    <glyph glyph-name="colon" unicode=":" horiz-adv-x="225" 
d="M127 222c-35 0 -66 28 -66 67c0 40 31 68 66 68c36 0 67 -28 67 -68c0 -39 -31 -67 -67 -67zM88 -6c-36 0 -67 28 -67 67s31 68 67 68s66 -29 66 -68s-30 -67 -66 -67z" />
    <glyph glyph-name="semicolon" unicode=";" horiz-adv-x="225" 
d="M127 222c-35 0 -66 28 -66 67c0 40 31 68 66 68c36 0 67 -28 67 -68c0 -39 -31 -67 -67 -67zM-1 -113l59 116c-21 10 -37 30 -37 60c0 38 30 67 67 67c36 0 66 -29 66 -68c0 -23 -11 -42 -26 -64l-77 -111h-52z" />
    <glyph glyph-name="semicolon" unicode="&#x37e;" horiz-adv-x="225" 
d="M127 222c-35 0 -66 28 -66 67c0 40 31 68 66 68c36 0 67 -28 67 -68c0 -39 -31 -67 -67 -67zM-1 -113l59 116c-21 10 -37 30 -37 60c0 38 30 67 67 67c36 0 66 -29 66 -68c0 -23 -11 -42 -26 -64l-77 -111h-52z" />
    <glyph glyph-name="less" unicode="&#x3c;" horiz-adv-x="383" 
d="M330 136l-280 177v11l344 173l-17 -97l-185 -87l153 -90z" />
    <glyph glyph-name="equal" unicode="=" horiz-adv-x="415" 
d="M62 342l15 85h339l-15 -85h-339zM34 182l15 85h339l-15 -85h-339z" />
    <glyph glyph-name="greater" unicode="&#x3e;" horiz-adv-x="383" 
d="M29 136l17 96l185 88l-153 90l15 87l280 -178v-10z" />
    <glyph glyph-name="question" unicode="?" horiz-adv-x="485" 
d="M189 208l30 168h40c90 0 133 54 133 121c0 62 -39 103 -101 103c-55 0 -92 -28 -121 -78l-77 45c35 72 109 121 200 121c126 0 200 -83 200 -191c0 -112 -83 -190 -194 -196l-17 -93h-93zM212 -6c-36 0 -66 28 -66 67s30 67 66 67c35 0 66 -28 66 -67s-31 -67 -66 -67z
" />
    <glyph glyph-name="at" unicode="@" horiz-adv-x="884" 
d="M434 -207c-242 0 -395 163 -395 382c0 253 193 422 422 422c236 0 384 -158 384 -360c0 -168 -82 -241 -186 -241c-68 0 -109 36 -123 81c-28 -55 -77 -86 -131 -86c-100 0 -168 77 -168 185c0 125 83 208 180 208c67 0 109 -39 128 -90l11 80h96l-40 -223
c-10 -55 8 -84 51 -84c50 0 97 49 97 172c0 172 -121 282 -299 282c-190 0 -331 -144 -331 -346c0 -177 112 -306 305 -306c57 0 113 12 161 31l28 -69c-54 -26 -117 -38 -190 -38zM430 72c56 0 99 56 99 123c0 59 -38 107 -89 107c-59 0 -101 -47 -101 -125
c0 -66 37 -105 91 -105z" />
    <glyph glyph-name="A" unicode="A" horiz-adv-x="647" 
d="M153 97l-57 -97h-103l405 687h12l172 -687h-105l-23 97h-301zM434 183l-48 207c-11 46 -15 98 -15 98s-19 -49 -45 -94l-123 -211h231z" />
    <glyph glyph-name="B" unicode="B" horiz-adv-x="597" 
d="M43 0l120 680h218c114 0 174 -71 174 -160c0 -73 -37 -129 -112 -151c67 -20 112 -75 112 -151c0 -128 -89 -218 -237 -218h-275zM219 414h131c67 0 102 38 102 99c0 44 -29 77 -84 77h-118zM162 90h149c91 0 138 51 138 131c0 63 -33 106 -108 106h-137z" />
    <glyph glyph-name="C" unicode="C" horiz-adv-x="710" 
d="M393 -9c-187 0 -324 143 -324 332c0 211 165 365 362 365c124 0 208 -47 266 -136l-83 -56c-38 59 -95 100 -186 100c-145 0 -251 -120 -251 -273c0 -140 93 -240 219 -240c94 0 152 41 195 92l76 -62c-67 -82 -149 -122 -274 -122z" />
    <glyph glyph-name="D" unicode="D" horiz-adv-x="663" 
d="M43 0l120 680h166c202 0 315 -124 315 -308c0 -228 -156 -372 -390 -372h-211zM162 90h92c191 0 283 122 283 286c0 127 -67 214 -220 214h-67z" />
    <glyph glyph-name="E" unicode="E" horiz-adv-x="571" 
d="M43 0l120 680h423l-16 -90h-321l-47 -268h284l-16 -89h-284l-25 -143h334l-16 -90h-436z" />
    <glyph glyph-name="F" unicode="F" horiz-adv-x="543" 
d="M43 0l120 680h415l-16 -90h-312l-48 -276h283l-15 -89h-284l-40 -225h-103z" />
    <glyph glyph-name="G" unicode="G" horiz-adv-x="779" 
d="M402 -9c-198 0 -331 138 -331 331c0 215 164 366 362 366c133 0 222 -50 276 -134l-81 -57c-40 61 -101 99 -198 99c-146 0 -253 -115 -253 -273c0 -139 90 -241 228 -241c129 0 214 77 233 170h-207l15 89h306c-8 -208 -129 -350 -350 -350z" />
    <glyph glyph-name="H" unicode="H" horiz-adv-x="685" 
d="M522 314l65 366h103l-120 -680h-103l39 223h-321l-39 -223h-103l120 680h103l-65 -366h321z" />
    <glyph glyph-name="I" unicode="I" horiz-adv-x="271" 
d="M48 0l120 680h103l-120 -680h-103z" />
    <glyph glyph-name="J" unicode="J" horiz-adv-x="470" 
d="M189 -9c-100 0 -160 55 -186 117l87 48c20 -43 50 -72 101 -72c54 0 84 25 97 99l88 497h103l-90 -510c-22 -126 -89 -179 -200 -179z" />
    <glyph glyph-name="K" unicode="K" horiz-adv-x="613" 
d="M188 301c21 33 50 76 76 104l258 275h121l-296 -318l208 -362h-115l-169 295l-89 -88l-36 -207h-103l120 680h103l-46 -263c-7 -38 -22 -86 -32 -116z" />
    <glyph glyph-name="L" unicode="L" horiz-adv-x="529" 
d="M43 0l120 680h103l-104 -589h309l-16 -91h-412z" />
    <glyph glyph-name="M" unicode="M" horiz-adv-x="826" 
d="M23 0l188 688h12l170 -366c14 -30 30 -76 30 -76s26 45 52 76l298 366h12l-54 -688h-101l24 338c4 48 17 116 17 116s-33 -58 -67 -99l-195 -250h-10l-112 251c-20 41 -43 104 -43 104s-12 -74 -24 -121l-94 -339h-103z" />
    <glyph glyph-name="N" unicode="N" horiz-adv-x="690" 
d="M561 -7l-295 408c-24 31 -50 80 -50 80s-3 -62 -10 -100l-67 -381h-96l121 687h13l296 -408c24 -31 49 -81 49 -81s2 57 10 101l67 381h96l-121 -687h-13z" />
    <glyph glyph-name="O" unicode="O" horiz-adv-x="782" 
d="M397 -9c-185 0 -327 137 -327 332c0 219 165 365 363 365c184 0 327 -136 327 -331c0 -219 -166 -366 -363 -366zM400 83c150 0 254 114 254 276c0 142 -92 237 -224 237c-149 0 -254 -113 -254 -275c0 -141 91 -238 224 -238z" />
    <glyph glyph-name="P" unicode="P" horiz-adv-x="577" 
d="M176 162l-29 -162h-103l120 680h151c168 0 259 -100 258 -238c0 -171 -116 -280 -311 -280h-86zM192 251h72c143 0 203 78 203 191c1 88 -48 149 -161 149h-55z" />
    <glyph glyph-name="Q" unicode="Q" horiz-adv-x="782" 
d="M422 -7l-27 -151h-101l27 158c-146 32 -251 156 -251 323c0 219 165 365 363 365c184 0 327 -136 327 -331c0 -210 -152 -353 -338 -364zM337 89l23 128h101l-24 -134c130 18 217 128 217 276c0 142 -92 237 -224 237c-149 0 -254 -113 -254 -275
c0 -118 63 -206 161 -232z" />
    <glyph glyph-name="R" unicode="R" horiz-adv-x="589" 
d="M402 202l108 -202h-109l-94 177c-14 -1 -29 -2 -44 -2h-87l-31 -175h-103l120 680h142c169 0 263 -92 263 -234c-1 -108 -52 -206 -165 -244zM191 264h73c134 0 196 67 197 182c0 95 -56 144 -167 144h-46z" />
    <glyph glyph-name="S" unicode="S" horiz-adv-x="526" 
d="M247 -9c-123 0 -206 72 -239 137l81 54c31 -49 79 -100 158 -100c76 0 122 41 122 101c0 47 -28 71 -91 112l-40 26c-82 53 -124 106 -124 189c0 103 74 178 194 178c83 0 138 -33 177 -88l-76 -60c-27 38 -55 59 -106 59c-53 0 -87 -34 -87 -84c0 -44 22 -69 78 -104
l40 -26c89 -56 140 -105 140 -197c0 -125 -94 -197 -227 -197z" />
    <glyph glyph-name="T" unicode="T" horiz-adv-x="558" 
d="M192 0l105 590h-199l16 90h499l-16 -90h-198l-104 -590h-103z" />
    <glyph glyph-name="U" unicode="U" horiz-adv-x="658" 
d="M318 -9c-152 0 -262 101 -233 270l74 419h104l-75 -425c-20 -114 35 -172 135 -172c90 0 143 45 161 148l79 449h104l-82 -465c-28 -155 -125 -224 -267 -224z" />
    <glyph glyph-name="V" unicode="V" horiz-adv-x="643" 
d="M290 -7l-179 687h105l88 -357c13 -51 23 -134 23 -134s32 79 61 129l205 362h107l-397 -687h-13z" />
    <glyph glyph-name="W" unicode="W" horiz-adv-x="933" 
d="M224 -7l-114 687h107l55 -352c7 -44 10 -109 10 -109s24 61 49 103l215 365h13l82 -361c9 -41 19 -108 19 -108s21 61 42 103l183 359h106l-354 -687h-12l-90 393c-9 38 -16 97 -16 97s-24 -55 -45 -91l-237 -399h-13z" />
    <glyph glyph-name="X" unicode="X" horiz-adv-x="627" 
d="M-6 0l290 373l-133 307h109l68 -161c13 -31 25 -82 25 -82s22 48 44 78l128 165h115l-239 -308l160 -372h-109l-96 225c-12 30 -23 81 -23 81s-24 -50 -47 -79l-177 -227h-115z" />
    <glyph glyph-name="Y" unicode="Y" horiz-adv-x="652" 
d="M279 219l-169 461h109l101 -278c15 -40 24 -103 24 -103s27 63 55 103l198 278h112l-327 -464l-38 -216h-103z" />
    <glyph glyph-name="Z" unicode="Z" horiz-adv-x="586" 
d="M6 0v11l429 580h-286l16 89h444v-11l-430 -580h332l-16 -89h-489z" />
    <glyph glyph-name="bracketleft" unicode="[" horiz-adv-x="314" 
d="M7 -128l150 850h216l-14 -84h-117l-120 -682h116l-15 -84h-216z" />
    <glyph glyph-name="backslash" unicode="\" horiz-adv-x="402" 
d="M247 -128l-140 850h94l140 -850h-94z" />
    <glyph glyph-name="bracketright" unicode="]" horiz-adv-x="314" 
d="M-27 -128l15 84h117l120 682h-116l14 84h216l-150 -850h-216z" />
    <glyph glyph-name="asciicircum" unicode="^" horiz-adv-x="421" 
d="M104 455l186 232h10l105 -232h-78l-53 103l-87 -103h-83z" />
    <glyph glyph-name="underscore" unicode="_" horiz-adv-x="265" 
d="M-61 -128l16 88h269l-16 -88h-269z" />
    <glyph glyph-name="quoteleft" unicode="&#x2018;" horiz-adv-x="216" 
d="M161 444c-35 0 -63 27 -63 65c0 22 10 43 25 64l71 107h51l-55 -114c21 -11 35 -30 35 -58c0 -37 -30 -64 -64 -64z" />
    <glyph glyph-name="a" unicode="a" horiz-adv-x="530" 
d="M208 -9c-96 0 -169 79 -169 202c0 145 93 236 203 236c66 0 122 -35 146 -100l13 91h99l-55 -315c-3 -20 2 -29 19 -29h34l-13 -76h-48c-78 0 -91 27 -91 66v9c-34 -54 -76 -84 -138 -84zM243 77c71 0 123 60 123 143c0 72 -38 122 -103 122c-74 0 -121 -60 -121 -147
c0 -71 38 -118 101 -118z" />
    <glyph glyph-name="b" unicode="b" horiz-adv-x="538" 
d="M297 -9c-72 0 -130 39 -155 107l-13 -98h-99l126 722h99l-65 -371c32 48 79 78 137 78c100 0 174 -80 174 -202c0 -141 -94 -236 -204 -236zM272 77c77 0 126 61 126 147c0 72 -41 118 -106 118c-74 0 -128 -59 -128 -143c0 -71 41 -122 108 -122z" />
    <glyph glyph-name="c" unicode="c" horiz-adv-x="454" 
d="M254 -9c-124 0 -213 87 -213 212c0 131 98 226 229 226c80 0 135 -34 168 -80l-72 -57c-21 31 -54 50 -97 50c-76 0 -126 -59 -126 -139c0 -73 41 -126 111 -126c51 0 79 22 96 37l58 -65c-33 -32 -82 -58 -154 -58z" />
    <glyph glyph-name="d" unicode="d" horiz-adv-x="542" 
d="M213 -9c-101 0 -174 81 -174 202c0 145 95 236 208 236c69 0 124 -36 149 -94l69 387h99l-109 -617c-3 -20 2 -29 19 -29h34l-13 -76h-48c-78 0 -92 27 -92 67l1 10c-31 -54 -81 -86 -143 -86zM247 77c75 0 129 60 129 143c1 72 -41 122 -108 122
c-77 0 -126 -60 -126 -147c0 -71 40 -118 105 -118z" />
    <glyph glyph-name="e" unicode="e" horiz-adv-x="517" 
d="M143 177c6 -59 49 -104 124 -104c56 0 91 21 117 44l59 -63c-45 -39 -99 -63 -177 -63c-135 0 -224 87 -224 211c0 134 106 227 232 227c142 0 217 -107 199 -252h-330zM146 245h232c-1 59 -37 104 -107 104c-66 0 -111 -40 -125 -104z" />
    <glyph glyph-name="f" unicode="f" horiz-adv-x="339" 
d="M124 337h-68l15 83h68l30 173c17 95 64 142 147 142c53 0 88 -19 115 -54l-64 -59c-11 14 -24 24 -47 24c-26 0 -45 -12 -53 -57l-30 -169h109l-14 -83h-110l-76 -434c-17 -100 -57 -115 -134 -115h-55l15 77h35c20 0 35 6 42 45z" />
    <glyph glyph-name="g" unicode="g" horiz-adv-x="534" 
d="M199 -222c-100 0 -169 45 -200 95l68 60c30 -43 69 -70 132 -70c72 0 119 40 136 127l15 78c-31 -46 -75 -77 -137 -77c-100 0 -173 81 -173 202c0 145 95 236 208 236c68 0 126 -35 151 -100l13 91h99l-78 -443c-25 -142 -116 -199 -234 -199zM248 77
c75 0 129 60 129 143c0 72 -41 122 -108 122c-77 0 -126 -60 -126 -147c0 -71 40 -118 105 -118z" />
    <glyph glyph-name="h" unicode="h" horiz-adv-x="517" 
d="M29 0l127 722h99l-66 -377c32 51 75 84 140 84c91 0 149 -75 129 -192l-24 -132c-3 -20 2 -29 19 -29h34l-13 -76h-43c-75 0 -108 32 -94 110l21 122c12 69 -14 108 -73 108c-65 0 -103 -35 -116 -108l-41 -232h-99z" />
    <glyph glyph-name="i" unicode="i" horiz-adv-x="245" 
d="M183 518c-34 0 -65 26 -65 65c0 38 30 64 64 64c35 0 66 -26 66 -64c0 -39 -30 -65 -65 -65zM140 0c-78 0 -105 26 -90 107l54 313h100l-56 -315c-3 -20 2 -29 19 -29h35l-13 -76h-49z" />
    <glyph glyph-name="j" unicode="j" horiz-adv-x="240" 
d="M184 518c-34 0 -65 26 -65 65c0 38 30 64 64 64c35 0 66 -26 66 -64c0 -39 -30 -65 -65 -65zM-21 -222c-55 0 -87 20 -107 44l56 60c11 -13 25 -20 43 -20c26 0 39 14 44 47l90 511h100l-90 -508c-15 -88 -60 -134 -136 -134z" />
    <glyph glyph-name="k" unicode="k" horiz-adv-x="476" 
d="M150 127l-22 -127h-99l127 722h99l-74 -417c-5 -29 -12 -57 -19 -79l195 194h115l-179 -177l80 -144c10 -19 19 -23 34 -23h29l-13 -76h-38c-57 0 -77 19 -102 67l-66 119z" />
    <glyph glyph-name="l" unicode="l" horiz-adv-x="246" 
d="M143 0c-78 0 -105 26 -90 107l108 615h99l-109 -617c-3 -20 1 -29 19 -29h41l-13 -76h-55z" />
    <glyph glyph-name="m" unicode="m" horiz-adv-x="757" 
d="M26 0l74 420h99l-16 -72c32 51 71 81 133 81c56 0 96 -33 112 -85c38 62 91 85 148 85c91 0 142 -76 122 -192l-24 -132c-3 -20 2 -29 19 -29h34l-13 -76h-48c-78 0 -105 26 -90 107l22 125c12 69 -6 108 -61 108c-60 0 -92 -35 -105 -108l-41 -232h-99l41 232
c12 69 -6 108 -61 108c-60 0 -93 -35 -106 -108l-41 -232h-99z" />
    <glyph glyph-name="n" unicode="n" horiz-adv-x="513" 
d="M26 0l74 420h99l-17 -80c32 55 79 89 143 89c92 0 150 -75 129 -192l-23 -132c-3 -20 2 -29 19 -29h34l-13 -76h-48c-78 0 -105 26 -90 107l21 125c12 69 -14 108 -73 108c-64 0 -102 -35 -115 -108l-41 -232h-99z" />
    <glyph glyph-name="o" unicode="o" horiz-adv-x="525" 
d="M256 -9c-121 0 -215 91 -215 211c0 133 102 227 230 227c121 0 215 -90 215 -212c0 -133 -101 -226 -230 -226zM259 76c76 0 125 60 125 142c0 74 -45 125 -116 125c-75 0 -125 -60 -125 -143c0 -73 46 -124 116 -124z" />
    <glyph glyph-name="p" unicode="p" horiz-adv-x="535" 
d="M-11 -212l111 632h99l-16 -74c34 52 82 83 140 83c101 0 175 -80 175 -202c0 -141 -95 -236 -205 -236c-72 0 -127 39 -152 101l-53 -304h-99zM268 77c77 0 127 61 127 147c0 72 -41 118 -106 118c-75 0 -129 -59 -129 -143c0 -71 41 -122 108 -122z" />
    <glyph glyph-name="q" unicode="q" horiz-adv-x="536" 
d="M409 -212c-78 0 -105 26 -90 107l30 173c-30 -46 -74 -77 -136 -77c-101 0 -174 81 -174 202c0 145 95 236 208 236c69 0 127 -35 151 -100l13 91h99l-93 -527c-3 -20 2 -29 19 -29h34l-13 -76h-48zM247 77c75 0 129 60 129 143c1 72 -41 122 -108 122
c-77 0 -126 -60 -126 -147c0 -71 40 -118 105 -118z" />
    <glyph glyph-name="r" unicode="r" horiz-adv-x="354" 
d="M26 0l74 420h99l-19 -86c37 68 80 94 130 94c27 0 43 -6 59 -15l-38 -90c-14 9 -29 12 -48 12c-63 0 -106 -37 -123 -132l-35 -203h-99z" />
    <glyph glyph-name="s" unicode="s" horiz-adv-x="407" 
d="M186 -9c-86 0 -145 39 -176 90l71 48c24 -36 55 -59 107 -59c49 0 68 18 68 45s-22 35 -85 65c-58 29 -100 62 -100 126c0 80 64 123 146 123c64 0 111 -26 140 -63l-65 -54c-17 22 -37 40 -76 40c-31 0 -53 -14 -53 -39s21 -37 69 -59c66 -31 119 -60 119 -136
c0 -74 -55 -127 -165 -127z" />
    <glyph glyph-name="t" unicode="t" horiz-adv-x="345" 
d="M117 337h-62l14 83h62l39 219h99l-39 -219h108l-15 -83h-107l-35 -197c-9 -48 5 -63 32 -63c23 0 39 9 51 18l39 -68c-22 -19 -53 -35 -105 -35c-75 0 -135 37 -115 152z" />
    <glyph glyph-name="u" unicode="u" horiz-adv-x="497" 
d="M228 -9c-121 0 -193 76 -170 206l39 223h99l-41 -231c-15 -82 20 -112 78 -112c60 0 89 29 102 103l42 240h99l-44 -252c-21 -119 -88 -177 -204 -177z" />
    <glyph glyph-name="v" unicode="v" horiz-adv-x="464" 
d="M204 -9l-151 429h103l57 -187c12 -34 18 -86 18 -86s20 52 40 86l109 187h104l-267 -429h-13z" />
    <glyph glyph-name="w" unicode="w" horiz-adv-x="672" 
d="M174 -10l-119 430h103l43 -182c8 -31 15 -77 15 -77s20 46 38 76l115 191h10l60 -190c11 -30 19 -77 19 -77s19 48 35 77l97 182h103l-241 -430h-11l-68 216c-9 26 -17 73 -17 73s-15 -43 -32 -69l-139 -220h-11z" />
    <glyph glyph-name="x" unicode="x" horiz-adv-x="479" 
d="M-13 0l196 222l-104 198h109l41 -81c9 -21 20 -59 20 -59s17 38 32 57l72 83h113l-168 -191l122 -229h-110l-54 103c-12 25 -24 68 -24 68s-21 -44 -40 -66l-92 -105h-113z" />
    <glyph glyph-name="y" unicode="y" horiz-adv-x="465" 
d="M15 -212l149 256l-111 376h105l56 -209c9 -32 13 -85 13 -85s15 51 33 83l120 211h105l-365 -632h-105z" />
    <glyph glyph-name="z" unicode="z" horiz-adv-x="428" 
d="M5 0v11l261 327h-188l15 82h339v-11l-261 -328h200l-15 -81h-351z" />
    <glyph glyph-name="braceleft" unicode="{" horiz-adv-x="383" 
d="M228 -128c-74 0 -143 36 -123 153l25 140c8 52 -5 65 -41 65h-61l15 84h58c38 0 57 13 68 73l36 198c20 110 77 137 146 137h90l-14 -84h-63c-34 0 -51 -13 -59 -59l-38 -215c-12 -70 -46 -88 -96 -95c46 -9 71 -39 60 -104l-26 -147c-8 -46 5 -62 42 -62h60l-16 -84h-63
z" />
    <glyph glyph-name="bar" unicode="|" horiz-adv-x="253" 
d="M19 -128l150 850h96l-150 -850h-96z" />
    <glyph glyph-name="braceright" unicode="}" horiz-adv-x="383" 
d="M-29 -128l15 84h63c34 0 51 13 59 59l29 164c12 70 46 88 95 95c-46 8 -71 39 -60 104l35 198c8 46 -4 62 -41 62h-60l15 84h63c75 0 144 -36 123 -153l-34 -191c-9 -52 6 -65 42 -65h60l-15 -84h-57c-39 0 -58 -13 -69 -73l-26 -147c-19 -109 -77 -137 -146 -137h-91z
" />
    <glyph glyph-name="asciitilde" unicode="~" horiz-adv-x="378" 
d="M113 216l-69 7c12 84 52 125 103 125c27 0 46 -12 63 -26c21 -16 32 -27 46 -27c19 0 28 14 36 53l69 -8c-11 -83 -52 -125 -103 -125c-26 0 -46 12 -63 26c-21 16 -31 28 -46 28c-18 0 -28 -15 -36 -53z" />
    <glyph glyph-name="exclamdown" unicode="&#xa1;" horiz-adv-x="252" 
d="M199 552c-35 0 -66 28 -66 67s31 67 66 67s66 -28 66 -67s-31 -67 -66 -67zM33 0l105 470h76l-70 -470h-111z" />
    <glyph glyph-name="cent" unicode="&#xa2;" horiz-adv-x="455" 
d="M190 -1c-89 25 -149 103 -149 204c0 130 96 224 225 226l19 106h54l-20 -110c54 -10 91 -37 120 -77l-73 -54c-15 22 -35 38 -61 46l-47 -265c49 1 75 22 92 38l58 -64c-35 -34 -82 -58 -154 -58h-11l-19 -107h-54zM251 344c-67 -8 -110 -62 -110 -141
c0 -55 23 -99 64 -118z" />
    <glyph glyph-name="sterling" unicode="&#xa3;" horiz-adv-x="605" 
d="M196 275h-100l14 76h71c-7 37 -13 76 -13 117c0 129 87 220 225 220c102 0 166 -46 202 -123l-82 -48c-27 56 -60 84 -121 84c-73 0 -119 -45 -119 -134c0 -38 5 -77 11 -116h190l-14 -76h-166c3 -29 6 -58 6 -88c0 -24 -3 -47 -9 -67c32 -23 66 -42 110 -42
c47 0 73 20 99 53l64 -59c-43 -54 -87 -81 -161 -81c-65 0 -109 28 -146 60c-31 -38 -76 -60 -130 -60c-66 0 -117 44 -117 102c0 68 53 106 115 106c32 0 58 -9 82 -21v4c0 30 -5 61 -11 93zM195 106c-21 18 -42 30 -67 30c-30 0 -47 -14 -47 -41c0 -22 16 -39 45 -39
c32 0 56 16 69 50z" />
    <glyph glyph-name="fraction" unicode="&#x2044;" horiz-adv-x="494" 
d="M-44 0l528 680h102l-529 -680h-101z" />
    <glyph glyph-name="fraction" unicode="&#x2215;" horiz-adv-x="494" 
d="M-44 0l528 680h102l-529 -680h-101z" />
    <glyph glyph-name="yen" unicode="&#xa5;" horiz-adv-x="627" 
d="M401 268l-34 -51l-5 -26h200l-14 -76h-199l-20 -115h-103l20 115h-200l14 76h200l6 30l-16 47h-176l14 76h137l-110 336h108l84 -284c13 -43 21 -112 21 -112s26 68 53 109l190 287h109l-228 -336h138l-14 -76h-175z" />
    <glyph glyph-name="florin" unicode="&#x192;" horiz-adv-x="373" 
d="M121 240h-74l14 76h73l41 231c18 101 65 141 140 141c59 0 94 -25 117 -61l-66 -52c-11 16 -23 27 -46 27c-26 0 -40 -13 -48 -58l-40 -228h101l-14 -76h-101l-80 -452h-97z" />
    <glyph glyph-name="section" unicode="&#xa7;" horiz-adv-x="550" 
d="M165 418c-14 25 -22 54 -22 89c0 101 79 181 192 181c90 0 146 -42 176 -100l-83 -50c-24 42 -50 61 -93 61c-54 0 -86 -41 -86 -87c0 -40 17 -67 56 -89l102 -60c79 -47 110 -97 110 -160c0 -74 -50 -113 -115 -135c16 -25 23 -53 23 -85c0 -99 -74 -163 -198 -163
c-99 0 -172 48 -210 116l82 53c30 -48 65 -79 127 -79c65 0 94 33 94 73c0 38 -23 57 -72 86l-96 56c-78 45 -105 89 -105 151c0 80 57 123 118 142zM355 120c38 13 62 36 62 71c0 36 -20 60 -66 87l-101 59c-17 10 -32 20 -45 32c-33 -14 -57 -37 -57 -74
c0 -36 13 -56 59 -83l96 -56c20 -12 37 -24 52 -36z" />
    <glyph glyph-name="currency" unicode="&#xa4;" horiz-adv-x="727" 
d="M135 366h-68l13 76h70c43 151 165 246 315 246c123 0 200 -54 245 -139l-83 -47c-32 60 -79 96 -165 96c-97 0 -171 -59 -204 -156h277l-13 -76h-281c-1 -15 -2 -31 -2 -48c0 -8 0 -17 1 -25h270l-13 -76h-245c26 -86 88 -136 180 -136c84 0 141 42 177 92l76 -58
c-57 -73 -131 -124 -256 -124c-142 0 -250 88 -284 226h-103l13 76h79c-1 8 -1 16 -1 24c0 17 1 33 2 49z" />
    <glyph glyph-name="quotesingle" unicode="'" horiz-adv-x="180" 
d="M92 452l29 228h106l-54 -228h-81z" />
    <glyph glyph-name="quotedblleft" unicode="&#x201c;" horiz-adv-x="400" 
d="M345 444c-35 0 -63 27 -63 65c0 22 10 43 25 64l71 107h51l-55 -114c21 -11 35 -30 35 -58c0 -37 -30 -64 -64 -64zM161 444c-35 0 -63 27 -63 65c0 22 10 43 25 64l71 107h51l-55 -114c21 -11 35 -30 35 -58c0 -37 -30 -64 -64 -64z" />
    <glyph glyph-name="guillemotleft" unicode="&#xab;" horiz-adv-x="443" 
d="M282 35l-69 157l1 8l120 167h103l-126 -174l70 -158h-99zM102 35l-69 157l1 8l121 167h103l-127 -174l70 -158h-99z" />
    <glyph glyph-name="guilsinglleft" unicode="&#x2039;" horiz-adv-x="263" 
d="M102 35l-69 156v8l121 168h103l-127 -174l70 -158h-98z" />
    <glyph glyph-name="guilsinglright" unicode="&#x203a;" horiz-adv-x="264" 
d="M6 35l126 173l-70 159h99l69 -157v-8l-121 -167h-103z" />
    <glyph glyph-name="endash" unicode="&#x2013;" horiz-adv-x="390" 
d="M25 167l16 88h326l-16 -88h-326z" />
    <glyph glyph-name="dagger" unicode="&#x2020;" horiz-adv-x="344" 
d="M179 498h-91l15 81h90l18 101h90l-18 -101h91l-14 -81h-91l-41 -236h-90z" />
    <glyph glyph-name="daggerdbl" unicode="&#x2021;" horiz-adv-x="343" 
d="M179 505h-91l14 74h91l18 101h90l-18 -101h90l-13 -74h-90l-12 -69h90l-13 -74h-90l-18 -101h-91l18 101h-90l12 74h91z" />
    <glyph glyph-name="periodcentered" unicode="&#xb7;" 
d="M119 181c-37 0 -68 29 -68 70c0 40 31 68 68 68c36 0 68 -28 68 -68c0 -41 -32 -70 -68 -70z" />
    <glyph glyph-name="periodcentered" unicode="&#x2219;" 
d="M119 181c-37 0 -68 29 -68 70c0 40 31 68 68 68c36 0 68 -28 68 -68c0 -41 -32 -70 -68 -70z" />
    <glyph glyph-name="paragraph" unicode="&#xb6;" horiz-adv-x="655" 
d="M318 274h-26c-131 0 -204 84 -204 188c0 119 86 218 233 218h337l-120 -680h-99l105 594h-72l-105 -594h-98zM333 361l41 233h-58c-69 0 -119 -46 -119 -128c0 -70 41 -105 101 -105h35z" />
    <glyph glyph-name="bullet" unicode="&#x2022;" horiz-adv-x="272" 
d="M144 153c-52 0 -98 44 -98 101s46 101 98 101c53 0 100 -44 100 -101s-47 -101 -100 -101z" />
    <glyph glyph-name="quotesinglbase" unicode="&#x201a;" horiz-adv-x="216" 
d="M4 -98l52 109c-21 10 -35 30 -35 58c0 37 29 64 63 64c36 0 64 -27 64 -65c0 -22 -11 -43 -25 -64l-69 -102h-50z" />
    <glyph glyph-name="quotedblbase" unicode="&#x201e;" horiz-adv-x="400" 
d="M188 -98l52 109c-21 10 -35 30 -35 58c0 37 29 64 63 64c36 0 64 -27 64 -65c0 -22 -11 -43 -25 -64l-69 -102h-50zM4 -98l52 109c-21 10 -35 30 -35 58c0 37 29 64 63 64c36 0 64 -27 64 -65c0 -22 -11 -43 -25 -64l-69 -102h-50z" />
    <glyph glyph-name="quotedblright" unicode="&#x201d;" horiz-adv-x="399" 
d="M282 452l56 114c-22 11 -36 30 -36 58c0 37 30 64 64 64c35 0 63 -27 63 -65c0 -22 -10 -43 -25 -64l-71 -107h-51zM98 452l56 114c-22 11 -36 30 -36 58c0 37 30 64 64 64c35 0 63 -27 63 -65c0 -22 -10 -43 -25 -64l-71 -107h-51z" />
    <glyph glyph-name="guillemotright" unicode="&#xbb;" horiz-adv-x="443" 
d="M185 35l127 173l-70 159h99l68 -157v-8l-121 -167h-103zM6 35l126 173l-70 159h99l69 -157l-1 -8l-120 -167h-103z" />
    <glyph glyph-name="ellipsis" unicode="&#x2026;" horiz-adv-x="652" 
d="M519 -6c-35 0 -67 28 -67 67s32 68 67 68c36 0 66 -29 66 -68s-30 -67 -66 -67zM301 -6c-35 0 -66 28 -66 67s31 68 66 68c36 0 67 -29 67 -68s-31 -67 -67 -67zM84 -6c-35 0 -66 28 -66 67s31 68 66 68c36 0 66 -29 66 -68s-30 -67 -66 -67z" />
    <glyph glyph-name="perthousand" unicode="&#x2030;" horiz-adv-x="1271" 
d="M245 338c-93 0 -166 71 -166 170c0 107 85 180 179 180c93 0 168 -71 168 -169c0 -109 -86 -181 -181 -181zM144 0l529 680h101l-528 -680h-102zM1059 -9c-93 0 -166 71 -166 170c0 108 85 180 179 180c93 0 168 -71 168 -169c0 -108 -86 -181 -181 -181zM659 -9
c-93 0 -166 71 -166 170c0 108 86 180 179 180s168 -71 168 -169c0 -108 -86 -181 -181 -181zM247 416c48 0 90 37 90 103c0 55 -33 91 -81 91s-89 -38 -89 -102c0 -56 32 -92 80 -92zM1061 70c48 0 90 36 90 102c0 55 -33 91 -81 91s-89 -37 -89 -102c0 -56 32 -91 80 -91z
M661 70c48 0 90 36 90 102c0 55 -33 91 -81 91s-89 -37 -89 -102c0 -56 32 -91 80 -91z" />
    <glyph glyph-name="questiondown" unicode="&#xbf;" horiz-adv-x="484" 
d="M321 553c-36 0 -67 29 -67 67c0 40 31 68 67 68c35 0 65 -28 65 -68c0 -38 -30 -67 -65 -67zM239 -7c-126 0 -199 83 -199 191c0 113 82 190 193 196l17 93h93l-30 -168h-40c-90 0 -133 -54 -133 -121c0 -62 39 -102 101 -102c55 0 92 27 121 77l77 -45
c-35 -72 -109 -121 -200 -121z" />
    <glyph glyph-name="grave" unicode="`" horiz-adv-x="493" 
d="M243 499l-89 190h115l50 -190h-76z" />
    <glyph glyph-name="acute" unicode="&#xb4;" horiz-adv-x="493" 
d="M249 499l89 190h120l-131 -190h-78z" />
    <glyph glyph-name="circumflex" unicode="&#x2c6;" horiz-adv-x="493" 
d="M152 498l176 204h10l105 -204h-78l-49 88l-80 -88h-84z" />
    <glyph glyph-name="tilde" unicode="&#x2dc;" horiz-adv-x="489" 
d="M215 496l-68 7c12 84 52 125 102 125c27 0 46 -12 63 -26c22 -16 33 -27 46 -27c19 0 28 14 37 53l68 -8c-11 -83 -51 -125 -103 -125c-26 0 -46 12 -63 26c-21 17 -31 28 -46 28c-18 0 -28 -15 -36 -53z" />
    <glyph glyph-name="macron" unicode="&#xaf;" horiz-adv-x="493" 
d="M192 529l13 74h224l-13 -74h-224z" />
    <glyph glyph-name="macron" unicode="&#x2c9;" horiz-adv-x="493" 
d="M192 529l13 74h224l-13 -74h-224z" />
    <glyph glyph-name="breve" unicode="&#x2d8;" horiz-adv-x="494" 
d="M295 494c-85 0 -133 58 -138 128l78 12c4 -36 19 -64 60 -64c43 0 62 29 70 64l77 -12c-13 -70 -63 -128 -147 -128z" />
    <glyph glyph-name="dotaccent" unicode="&#x2d9;" horiz-adv-x="493" 
d="M311 512c-30 0 -58 26 -58 60c0 33 28 59 58 59c31 0 59 -26 59 -59c0 -34 -28 -60 -59 -60z" />
    <glyph glyph-name="dieresis" unicode="&#xa8;" horiz-adv-x="494" 
d="M407 513c-30 0 -59 26 -59 59s29 59 59 59s58 -26 58 -59s-28 -59 -58 -59zM217 513c-30 0 -58 26 -58 59s28 59 58 59c31 0 59 -26 59 -59s-28 -59 -59 -59z" />
    <glyph glyph-name="ring" unicode="&#x2da;" horiz-adv-x="493" 
d="M314 479c-64 0 -114 50 -114 109c0 61 50 110 114 110c65 0 114 -49 114 -110c0 -59 -49 -109 -114 -109zM314 537c28 0 48 20 48 51c0 32 -20 52 -48 52c-27 0 -48 -20 -48 -52c0 -31 21 -51 48 -51z" />
    <glyph glyph-name="cedilla" unicode="&#xb8;" horiz-adv-x="493" 
d="M205 -236c-58 0 -93 27 -109 61l52 29c9 -17 22 -33 51 -33c27 0 44 16 44 42c0 25 -14 44 -48 44h-27l16 93h58l-8 -47c37 -6 73 -38 73 -91c0 -63 -48 -98 -102 -98z" />
    <glyph glyph-name="hungarumlaut" unicode="&#x2dd;" horiz-adv-x="493" 
d="M315 499l94 190h106l-122 -190h-78zM157 499l93 190h107l-122 -190h-78z" />
    <glyph glyph-name="ogonek" unicode="&#x2db;" horiz-adv-x="493" 
d="M212 -236c-52 0 -101 30 -101 90c0 45 26 81 57 110l39 36h63l-49 -61c-28 -34 -41 -52 -41 -81c0 -23 15 -36 36 -36c23 0 35 15 47 32l52 -30c-18 -33 -48 -60 -103 -60z" />
    <glyph glyph-name="caron" unicode="&#x2c7;" horiz-adv-x="493" 
d="M292 484l-106 205h79l49 -90l80 90h83l-175 -205h-10z" />
    <glyph glyph-name="emdash" unicode="&#x2014;" horiz-adv-x="624" 
d="M25 167l16 88h560l-15 -88h-561z" />
    <glyph glyph-name="AE" unicode="&#xc6;" horiz-adv-x="948" 
d="M178 96l-78 -96h-115l569 680h409l-16 -90h-321l-47 -268h284l-16 -89h-284l-25 -143h334l-16 -90h-436l17 96h-259zM452 182l44 250c7 39 27 100 27 100s-36 -61 -61 -91l-213 -259h203z" />
    <glyph glyph-name="ordfeminine" unicode="&#xaa;" horiz-adv-x="480" 
d="M239 318c-81 0 -147 66 -147 171c0 125 83 199 176 199c56 0 101 -29 121 -83l11 75h89l-46 -261c-3 -17 3 -25 17 -25h28l-11 -69h-44c-65 0 -78 23 -80 56v5c-28 -44 -62 -68 -114 -68zM269 393c59 0 101 50 101 119c0 59 -30 99 -84 99c-61 0 -100 -48 -100 -120
c0 -58 30 -98 83 -98z" />
    <glyph glyph-name="Lslash" unicode="&#x141;" horiz-adv-x="536" 
d="M192 227l-24 -136h309l-16 -91h-411l33 189l-78 -28l16 92l78 28l71 399h103l-64 -360l195 70l-16 -93z" />
    <glyph glyph-name="Oslash" unicode="&#xd8;" horiz-adv-x="782" 
d="M700 555c38 -54 60 -122 60 -198c0 -219 -166 -366 -360 -366c-85 0 -159 28 -216 75l-80 -76l-54 58l80 76c-38 54 -60 123 -60 199c0 219 165 365 359 365c85 0 159 -27 216 -75l80 76l55 -58zM205 195l370 351c-38 32 -88 50 -147 50c-145 0 -252 -113 -252 -275
c0 -48 10 -90 29 -126zM625 484l-370 -351c38 -32 88 -50 147 -50c146 0 252 114 252 276c0 48 -10 90 -29 125z" />
    <glyph glyph-name="OE" unicode="&#x152;" horiz-adv-x="980" 
d="M384 0c-201 0 -315 124 -315 308c0 225 158 372 390 372h537l-16 -90h-321l-47 -268h284l-16 -89h-284l-25 -143h334l-16 -90h-505zM396 90h73l88 500h-98c-191 0 -283 -122 -283 -286c0 -127 67 -214 220 -214z" />
    <glyph glyph-name="ordmasculine" unicode="&#xba;" horiz-adv-x="456" 
d="M273 316c-103 0 -180 77 -180 180c0 112 89 192 195 192c103 0 180 -80 180 -181c0 -114 -90 -191 -195 -191zM275 392c58 0 98 48 98 118c0 57 -33 101 -88 101c-59 0 -97 -48 -97 -117c0 -60 32 -102 87 -102z" />
    <glyph glyph-name="ae" unicode="&#xe6;" horiz-adv-x="787" 
d="M382 357c37 45 94 72 162 72c141 0 216 -107 198 -252h-330c6 -59 49 -104 124 -104c56 0 91 21 117 44l59 -63c-45 -39 -99 -63 -177 -63c-84 0 -144 38 -177 96c-29 -60 -82 -96 -175 -96c-95 0 -162 45 -162 123c0 98 77 130 176 130h119c11 66 -17 105 -76 105
c-47 0 -84 -21 -108 -47l-55 61c34 37 90 66 167 66c62 0 112 -25 138 -72zM415 245h232c-1 59 -37 104 -107 104c-66 0 -111 -40 -125 -104zM307 185h-111c-46 0 -75 -18 -76 -60c0 -34 22 -55 73 -55c63 0 99 28 107 74z" />
    <glyph glyph-name="dotlessi" unicode="&#x131;" horiz-adv-x="245" 
d="M140 0c-78 0 -105 26 -90 107l54 313h100l-56 -315c-3 -20 2 -29 19 -29h35l-13 -76h-49z" />
    <glyph glyph-name="lslash" unicode="&#x142;" horiz-adv-x="281" 
d="M198 272l-30 -167c-3 -20 2 -29 19 -29h42l-13 -76h-56c-78 0 -105 26 -90 107l19 107l-82 -44l18 98l81 43l72 411h99l-62 -352l89 48l-17 -98z" />
    <glyph glyph-name="oslash" unicode="&#xf8;" horiz-adv-x="525" 
d="M453 333c21 -33 33 -72 33 -116c0 -133 -101 -226 -230 -226c-55 0 -104 19 -141 50l-63 -54l-39 48l61 52c-21 33 -33 72 -33 115c0 133 102 227 230 227c55 0 104 -18 141 -50l63 54l37 -49zM146 150l199 171c-20 17 -46 27 -77 27c-78 0 -130 -62 -130 -148
c0 -18 3 -35 8 -50zM380 270l-199 -172c20 -17 47 -27 78 -27c79 0 130 62 130 147c0 19 -3 37 -9 52z" />
    <glyph glyph-name="oe" unicode="&#x153;" horiz-adv-x="856" 
d="M433 85c-36 -58 -98 -94 -177 -94c-121 0 -215 91 -215 211c0 133 102 227 232 227c75 0 133 -38 165 -96c37 60 100 96 176 96c142 0 217 -107 199 -252h-330c6 -59 49 -104 124 -104c56 0 91 21 117 44l59 -63c-45 -39 -99 -63 -177 -63c-80 0 -140 36 -173 94z
M486 245h232c-1 59 -37 104 -107 104c-66 0 -111 -40 -125 -104zM259 76c76 0 125 60 125 143c0 73 -45 124 -116 124c-75 0 -125 -60 -125 -143c0 -73 46 -124 116 -124z" />
    <glyph glyph-name="germandbls" unicode="&#xdf;" horiz-adv-x="567" 
d="M-82 -212l14 77h37c20 0 35 6 42 45l113 641c24 133 96 184 191 184c80 0 159 -45 159 -138c0 -39 -8 -70 -34 -112l-61 -99c-17 -27 -24 -45 -24 -63c0 -23 14 -37 52 -58c60 -34 109 -66 109 -140s-49 -134 -158 -134c-85 0 -139 41 -164 81l67 51
c22 -34 53 -53 95 -53s63 21 63 50s-28 43 -71 65c-61 34 -91 65 -91 117c0 33 11 70 38 114l61 99c18 29 24 53 24 77c0 36 -24 61 -66 61c-53 0 -79 -33 -92 -108l-113 -642c-18 -100 -57 -115 -135 -115h-56z" />
    <glyph glyph-name="onesuperior" unicode="&#xb9;" 
d="M119 181c-37 0 -68 29 -68 70c0 40 31 68 68 68c36 0 68 -28 68 -68c0 -41 -32 -70 -68 -70z" />
    <glyph glyph-name="logicalnot" unicode="&#xac;" 
d="M119 181c-37 0 -68 29 -68 70c0 40 31 68 68 68c36 0 68 -28 68 -68c0 -41 -32 -70 -68 -70z" />
    <glyph glyph-name="mu" unicode="&#xb5;" 
d="M119 181c-37 0 -68 29 -68 70c0 40 31 68 68 68c36 0 68 -28 68 -68c0 -41 -32 -70 -68 -70z" />
    <glyph glyph-name="mu" unicode="&#x3bc;" 
d="M119 181c-37 0 -68 29 -68 70c0 40 31 68 68 68c36 0 68 -28 68 -68c0 -41 -32 -70 -68 -70z" />
    <glyph glyph-name="trademark" unicode="&#x2122;" horiz-adv-x="704" 
d="M368 381l53 303h9l116 -154l170 154h9l-54 -303h-70l27 155l-92 -92h-9l-62 93l-27 -156h-70zM198 621h-84l10 59h239l-10 -59h-84l-42 -240h-71z" />
    <glyph glyph-name="Eth" unicode="&#xd0;" horiz-adv-x="663" 
d="M86 242h-67l15 89h67l62 349h166c200 0 315 -125 315 -308c0 -228 -156 -372 -390 -372h-211zM204 331h166l-16 -89h-165l-27 -152h92c191 0 283 122 283 286c0 127 -67 214 -220 214h-67z" />
    <glyph glyph-name="onehalf" unicode="&#xbd;" 
d="M119 181c-37 0 -68 29 -68 70c0 40 31 68 68 68c36 0 68 -28 68 -68c0 -41 -32 -70 -68 -70z" />
    <glyph glyph-name="plusminus" horiz-adv-x="794" 
d="M691 0c-78 0 -105 26 -91 107l109 615h99l-109 -617c-3 -20 1 -29 19 -29h41l-13 -76h-55zM382 337h-159l-76 -434c-18 -100 -58 -115 -135 -115h-55l15 77h35c20 0 35 6 42 45l75 427h-68l15 83h68l27 154c17 95 63 141 144 141c45 0 74 -14 96 -38l-53 -67
c-11 11 -23 16 -39 16c-25 0 -42 -12 -50 -55l-26 -151h159l31 173c17 96 63 142 140 142c42 0 74 -14 95 -37l-48 -68c-9 9 -20 16 -39 16c-24 0 -42 -12 -50 -56l-30 -170h94l-14 -83h-95l-72 -411c-17 -100 -57 -115 -134 -115h-50l14 77h30c20 0 35 7 42 45z" />
    <glyph glyph-name="Thorn" unicode="&#xde;" horiz-adv-x="574" 
d="M254 604h42c167 0 261 -101 260 -238c0 -175 -114 -280 -309 -280h-85l-15 -86h-103l120 680h103zM178 175h71c143 0 201 73 201 191c1 88 -47 149 -161 149h-51z" />
    <glyph glyph-name="onequarter" unicode="&#xbc;" 
d="M119 181c-37 0 -68 29 -68 70c0 40 31 68 68 68c36 0 68 -28 68 -68c0 -41 -32 -70 -68 -70z" />
    <glyph glyph-name="divide" unicode="&#xf7;" 
d="M119 181c-37 0 -68 29 -68 70c0 40 31 68 68 68c36 0 68 -28 68 -68c0 -41 -32 -70 -68 -70z" />
    <glyph glyph-name="brokenbar" unicode="&#xa6;" 
d="M119 181c-37 0 -68 29 -68 70c0 40 31 68 68 68c36 0 68 -28 68 -68c0 -41 -32 -70 -68 -70z" />
    <glyph glyph-name="degree" unicode="&#xb0;" horiz-adv-x="359" 
d="M237 408c-77 0 -139 62 -139 138c0 82 67 142 145 142c77 0 139 -60 139 -135c0 -82 -65 -145 -145 -145zM238 474c42 0 71 32 71 77c0 41 -27 71 -67 71c-42 0 -71 -32 -71 -77c0 -40 28 -71 67 -71z" />
    <glyph glyph-name="thorn" unicode="&#xfe;" horiz-adv-x="535" 
d="M-11 -212l164 934h99l-66 -374c31 51 75 81 137 81c101 0 175 -80 175 -202c0 -141 -95 -236 -205 -236c-72 0 -127 39 -152 101l-53 -304h-99zM268 77c77 0 127 61 127 147c0 72 -41 118 -106 118c-75 0 -129 -59 -129 -143c0 -71 41 -122 108 -122z" />
    <glyph glyph-name="threequarters" unicode="&#xbe;" 
d="M119 181c-37 0 -68 29 -68 70c0 40 31 68 68 68c36 0 68 -28 68 -68c0 -41 -32 -70 -68 -70z" />
    <glyph glyph-name="twosuperior" unicode="&#xb2;" 
d="M119 181c-37 0 -68 29 -68 70c0 40 31 68 68 68c36 0 68 -28 68 -68c0 -41 -32 -70 -68 -70z" />
    <glyph glyph-name="registered" unicode="&#xae;" horiz-adv-x="510" 
d="M301 259c-119 0 -216 90 -216 216s97 217 216 217c120 0 219 -91 219 -217s-99 -216 -219 -216zM301 299c101 0 174 67 174 176c0 110 -73 176 -174 176c-99 0 -171 -66 -171 -176c0 -109 72 -176 171 -176zM353 430l31 -67h-55l-26 57h-38l-10 -57h-54l40 227h72
c63 0 92 -42 90 -87c-1 -35 -20 -61 -50 -73zM272 462h32c29 0 43 12 45 40c2 26 -11 43 -38 43h-25z" />
    <glyph glyph-name="minus" unicode="&#x2212;" 
d="M119 181c-37 0 -68 29 -68 70c0 40 31 68 68 68c36 0 68 -28 68 -68c0 -41 -32 -70 -68 -70z" />
    <glyph glyph-name="eth" unicode="&#xf0;" horiz-adv-x="523" 
d="M305 554l-68 -53l-38 51l70 55c-19 27 -40 52 -60 75l63 56c23 -22 47 -47 69 -74l70 55l39 -51l-71 -55c63 -93 110 -212 110 -358c0 -166 -90 -264 -233 -264c-122 0 -213 89 -213 216c0 136 106 222 211 222c57 0 97 -20 123 -53c-14 67 -41 126 -72 178zM259 75
c77 0 126 61 126 148c0 72 -44 122 -112 122c-77 0 -129 -58 -129 -141c0 -76 44 -129 115 -129z" />
    <glyph glyph-name="multiply" unicode="&#xd7;" 
d="M119 181c-37 0 -68 29 -68 70c0 40 31 68 68 68c36 0 68 -28 68 -68c0 -41 -32 -70 -68 -70z" />
    <glyph glyph-name="threesuperior" unicode="&#xb3;" 
d="M119 181c-37 0 -68 29 -68 70c0 40 31 68 68 68c36 0 68 -28 68 -68c0 -41 -32 -70 -68 -70z" />
    <glyph glyph-name="copyright" unicode="&#xa9;" horiz-adv-x="786" 
d="M417 -8c-188 0 -349 147 -349 348s161 348 349 348s349 -147 349 -348s-161 -348 -349 -348zM417 41c164 0 297 127 297 299s-133 299 -297 299s-297 -127 -297 -299s133 -299 297 -299zM413 127c-114 0 -207 89 -207 210c0 128 96 218 217 218c76 0 131 -30 169 -82
l-72 -54c-22 29 -51 49 -97 49c-71 0 -119 -51 -119 -130c0 -73 46 -125 114 -125c46 0 74 22 96 47l67 -54c-40 -51 -95 -79 -168 -79z" />
    <glyph glyph-name="Aacute" unicode="&#xc1;" horiz-adv-x="647" 
d="M366 751l89 190h120l-131 -190h-78zM153 97l-57 -97h-103l405 687h12l172 -687h-105l-23 97h-301zM434 183l-48 207c-11 46 -15 98 -15 98s-19 -49 -45 -94l-123 -211h231z" />
    <glyph glyph-name="Acircumflex" unicode="&#xc2;" horiz-adv-x="647" 
d="M250 750l176 204h10l105 -204h-78l-49 88l-80 -88h-84zM153 97l-57 -97h-103l405 687h12l172 -687h-105l-23 97h-301zM434 183l-48 207c-11 46 -15 98 -15 98s-19 -49 -45 -94l-123 -211h231z" />
    <glyph glyph-name="Adieresis" unicode="&#xc4;" horiz-adv-x="647" 
d="M508 765c-30 0 -59 26 -59 59s29 59 59 59s58 -26 58 -59s-28 -59 -58 -59zM318 765c-30 0 -58 26 -58 59s28 59 58 59c31 0 59 -26 59 -59s-28 -59 -59 -59zM153 97l-57 -97h-103l405 687h12l172 -687h-105l-23 97h-301zM434 183l-48 207c-11 46 -15 98 -15 98
s-19 -49 -45 -94l-123 -211h231z" />
    <glyph glyph-name="Agrave" unicode="&#xc0;" horiz-adv-x="647" 
d="M362 751l-89 190h115l50 -190h-76zM153 97l-57 -97h-103l405 687h12l172 -687h-105l-23 97h-301zM434 183l-48 207c-11 46 -15 98 -15 98s-19 -49 -45 -94l-123 -211h231z" />
    <glyph glyph-name="Aring" unicode="&#xc5;" horiz-adv-x="647" 
d="M411 731c-64 0 -114 50 -114 109c0 61 50 110 114 110c65 0 114 -49 114 -110c0 -59 -49 -109 -114 -109zM153 97l-57 -97h-103l405 687h12l172 -687h-105l-23 97h-301zM411 789c28 0 48 20 48 51c0 32 -20 52 -48 52c-27 0 -48 -20 -48 -52c0 -31 21 -51 48 -51z
M434 183l-48 207c-11 46 -15 98 -15 98s-19 -49 -45 -94l-123 -211h231z" />
    <glyph glyph-name="Atilde" unicode="&#xc3;" horiz-adv-x="647" 
d="M313 748l-68 7c12 84 52 125 102 125c27 0 46 -12 63 -26c22 -16 33 -27 46 -27c19 0 28 14 37 53l68 -8c-11 -83 -51 -125 -103 -125c-26 0 -46 12 -63 26c-21 17 -31 28 -46 28c-18 0 -28 -15 -36 -53zM153 97l-57 -97h-103l405 687h12l172 -687h-105l-23 97h-301z
M434 183l-48 207c-11 46 -15 98 -15 98s-19 -49 -45 -94l-123 -211h231z" />
    <glyph glyph-name="Ccedilla" unicode="&#xc7;" horiz-adv-x="710" 
d="M332 -4c-155 28 -263 159 -263 327c0 211 165 365 362 365c124 0 208 -47 266 -136l-83 -56c-38 59 -95 100 -186 100c-145 0 -251 -120 -251 -273c0 -140 93 -240 219 -240c94 0 152 41 195 92l76 -62c-67 -82 -149 -122 -274 -122h-4l-6 -38c37 -6 73 -38 73 -91
c0 -63 -48 -98 -102 -98c-58 0 -93 27 -109 61l52 29c9 -17 22 -33 51 -33c27 0 44 16 44 42c0 25 -14 44 -48 44h-27z" />
    <glyph glyph-name="Eacute" unicode="&#xc9;" horiz-adv-x="571" 
d="M339 751l89 190h120l-131 -190h-78zM43 0l120 680h423l-16 -90h-321l-47 -268h284l-16 -89h-284l-25 -143h334l-16 -90h-436z" />
    <glyph glyph-name="Ecircumflex" unicode="&#xca;" horiz-adv-x="571" 
d="M236 750l176 204h10l105 -204h-78l-49 88l-80 -88h-84zM43 0l120 680h423l-16 -90h-321l-47 -268h284l-16 -89h-284l-25 -143h334l-16 -90h-436z" />
    <glyph glyph-name="Edieresis" unicode="&#xcb;" horiz-adv-x="571" 
d="M482 765c-30 0 -59 26 -59 59s29 59 59 59s58 -26 58 -59s-28 -59 -58 -59zM292 765c-30 0 -58 26 -58 59s28 59 58 59c31 0 59 -26 59 -59s-28 -59 -59 -59zM43 0l120 680h423l-16 -90h-321l-47 -268h284l-16 -89h-284l-25 -143h334l-16 -90h-436z" />
    <glyph glyph-name="Egrave" unicode="&#xc8;" horiz-adv-x="571" 
d="M344 751l-89 190h115l50 -190h-76zM43 0l120 680h423l-16 -90h-321l-47 -268h284l-16 -89h-284l-25 -143h334l-16 -90h-436z" />
    <glyph glyph-name="Iacute" unicode="&#xcd;" horiz-adv-x="271" 
d="M180 751l89 190h120l-131 -190h-78zM48 0l120 680h103l-120 -680h-103z" />
    <glyph glyph-name="Icircumflex" unicode="&#xce;" horiz-adv-x="271" 
d="M81 750l176 204h10l105 -204h-78l-49 88l-80 -88h-84zM48 0l120 680h103l-120 -680h-103z" />
    <glyph glyph-name="Idieresis" unicode="&#xcf;" horiz-adv-x="271" 
d="M340 765c-30 0 -59 26 -59 59s29 59 59 59s58 -26 58 -59s-28 -59 -58 -59zM150 765c-30 0 -58 26 -58 59s28 59 58 59c31 0 59 -26 59 -59s-28 -59 -59 -59zM48 0l120 680h103l-120 -680h-103z" />
    <glyph glyph-name="Igrave" unicode="&#xcc;" horiz-adv-x="271" 
d="M190 751l-89 190h115l50 -190h-76zM48 0l120 680h103l-120 -680h-103z" />
    <glyph glyph-name="Ntilde" unicode="&#xd1;" horiz-adv-x="690" 
d="M343 748l-68 7c12 84 52 125 102 125c27 0 46 -12 63 -26c22 -16 33 -27 46 -27c19 0 28 14 37 53l68 -8c-11 -83 -51 -125 -103 -125c-26 0 -46 12 -63 26c-21 17 -31 28 -46 28c-18 0 -28 -15 -36 -53zM561 -7l-295 408c-24 31 -50 80 -50 80s-3 -62 -10 -100l-67 -381
h-96l121 687h13l296 -408c24 -31 49 -81 49 -81s2 57 10 101l67 381h96l-121 -687h-13z" />
    <glyph glyph-name="Oacute" unicode="&#xd3;" horiz-adv-x="782" 
d="M411 751l89 190h120l-131 -190h-78zM397 -9c-185 0 -327 137 -327 332c0 219 165 365 363 365c184 0 327 -136 327 -331c0 -219 -166 -366 -363 -366zM400 83c150 0 254 114 254 276c0 142 -92 237 -224 237c-149 0 -254 -113 -254 -275c0 -141 91 -238 224 -238z" />
    <glyph glyph-name="Ocircumflex" unicode="&#xd4;" horiz-adv-x="782" 
d="M309 750l176 204h10l105 -204h-78l-49 88l-80 -88h-84zM397 -9c-185 0 -327 137 -327 332c0 219 165 365 363 365c184 0 327 -136 327 -331c0 -219 -166 -366 -363 -366zM400 83c150 0 254 114 254 276c0 142 -92 237 -224 237c-149 0 -254 -113 -254 -275
c0 -141 91 -238 224 -238z" />
    <glyph glyph-name="Odieresis" unicode="&#xd6;" horiz-adv-x="782" 
d="M561 765c-30 0 -59 26 -59 59s29 59 59 59s58 -26 58 -59s-28 -59 -58 -59zM371 765c-30 0 -58 26 -58 59s28 59 58 59c31 0 59 -26 59 -59s-28 -59 -59 -59zM397 -9c-185 0 -327 137 -327 332c0 219 165 365 363 365c184 0 327 -136 327 -331
c0 -219 -166 -366 -363 -366zM400 83c150 0 254 114 254 276c0 142 -92 237 -224 237c-149 0 -254 -113 -254 -275c0 -141 91 -238 224 -238z" />
    <glyph glyph-name="Ograve" unicode="&#xd2;" horiz-adv-x="782" 
d="M409 751l-89 190h115l50 -190h-76zM397 -9c-185 0 -327 137 -327 332c0 219 165 365 363 365c184 0 327 -136 327 -331c0 -219 -166 -366 -363 -366zM400 83c150 0 254 114 254 276c0 142 -92 237 -224 237c-149 0 -254 -113 -254 -275c0 -141 91 -238 224 -238z" />
    <glyph glyph-name="Otilde" unicode="&#xd5;" horiz-adv-x="782" 
d="M371 748l-68 7c12 84 52 125 102 125c27 0 46 -12 63 -26c22 -16 33 -27 46 -27c19 0 28 14 37 53l68 -8c-11 -83 -51 -125 -103 -125c-26 0 -46 12 -63 26c-21 17 -31 28 -46 28c-18 0 -28 -15 -36 -53zM397 -9c-185 0 -327 137 -327 332c0 219 165 365 363 365
c184 0 327 -136 327 -331c0 -219 -166 -366 -363 -366zM400 83c150 0 254 114 254 276c0 142 -92 237 -224 237c-149 0 -254 -113 -254 -275c0 -141 91 -238 224 -238z" />
    <glyph glyph-name="Scaron" unicode="&#x160;" horiz-adv-x="526" 
d="M318 736l-106 205h79l49 -90l80 90h83l-175 -205h-10zM247 -9c-123 0 -206 72 -239 137l81 54c31 -49 79 -100 158 -100c76 0 122 41 122 101c0 47 -28 71 -91 112l-40 26c-82 53 -124 106 -124 189c0 103 74 178 194 178c83 0 138 -33 177 -88l-76 -60
c-27 38 -55 59 -106 59c-53 0 -87 -34 -87 -84c0 -44 22 -69 78 -104l40 -26c89 -56 140 -105 140 -197c0 -125 -94 -197 -227 -197z" />
    <glyph glyph-name="Uacute" unicode="&#xda;" horiz-adv-x="658" 
d="M372 751l89 190h120l-131 -190h-78zM318 -9c-152 0 -262 101 -233 270l74 419h104l-75 -425c-20 -114 35 -172 135 -172c90 0 143 45 161 148l79 449h104l-82 -465c-28 -155 -125 -224 -267 -224z" />
    <glyph glyph-name="Ucircumflex" unicode="&#xdb;" horiz-adv-x="658" 
d="M272 750l176 204h10l105 -204h-78l-49 88l-80 -88h-84zM318 -9c-152 0 -262 101 -233 270l74 419h104l-75 -425c-20 -114 35 -172 135 -172c90 0 143 45 161 148l79 449h104l-82 -465c-28 -155 -125 -224 -267 -224z" />
    <glyph glyph-name="Udieresis" unicode="&#xdc;" horiz-adv-x="658" 
d="M520 765c-30 0 -59 26 -59 59s29 59 59 59s58 -26 58 -59s-28 -59 -58 -59zM330 765c-30 0 -58 26 -58 59s28 59 58 59c31 0 59 -26 59 -59s-28 -59 -59 -59zM318 -9c-152 0 -262 101 -233 270l74 419h104l-75 -425c-20 -114 35 -172 135 -172c90 0 143 45 161 148
l79 449h104l-82 -465c-28 -155 -125 -224 -267 -224z" />
    <glyph glyph-name="Ugrave" unicode="&#xd9;" horiz-adv-x="658" 
d="M372 751l-89 190h115l50 -190h-76zM318 -9c-152 0 -262 101 -233 270l74 419h104l-75 -425c-20 -114 35 -172 135 -172c90 0 143 45 161 148l79 449h104l-82 -465c-28 -155 -125 -224 -267 -224z" />
    <glyph glyph-name="Yacute" unicode="&#xdd;" horiz-adv-x="652" 
d="M371 751l89 190h120l-131 -190h-78zM279 219l-169 461h109l101 -278c15 -40 24 -103 24 -103s27 63 55 103l198 278h112l-327 -464l-38 -216h-103z" />
    <glyph glyph-name="Ydieresis" unicode="&#x178;" horiz-adv-x="652" 
d="M511 765c-30 0 -59 26 -59 59s29 59 59 59s58 -26 58 -59s-28 -59 -58 -59zM321 765c-30 0 -58 26 -58 59s28 59 58 59c31 0 59 -26 59 -59s-28 -59 -59 -59zM279 219l-169 461h109l101 -278c15 -40 24 -103 24 -103s27 63 55 103l198 278h112l-327 -464l-38 -216h-103z
" />
    <glyph glyph-name="Zcaron" unicode="&#x17d;" horiz-adv-x="586" 
d="M374 736l-106 205h79l49 -90l80 90h83l-175 -205h-10zM5 0v11l429 580h-286l16 89h444v-11l-430 -580h332l-16 -89h-489z" />
    <glyph glyph-name="aacute" unicode="&#xe1;" horiz-adv-x="530" 
d="M249 499l89 190h120l-131 -190h-78zM208 -9c-96 0 -169 79 -169 202c0 145 93 236 203 236c66 0 122 -35 146 -100l13 91h99l-55 -315c-3 -20 2 -29 19 -29h34l-13 -76h-48c-78 0 -91 27 -91 66v9c-34 -54 -76 -84 -138 -84zM243 77c71 0 123 60 123 143
c0 72 -38 122 -103 122c-74 0 -121 -60 -121 -147c0 -71 38 -118 101 -118z" />
    <glyph glyph-name="acircumflex" unicode="&#xe2;" horiz-adv-x="530" 
d="M159 498l176 204h10l105 -204h-78l-49 88l-80 -88h-84zM208 -9c-96 0 -169 79 -169 202c0 145 93 236 203 236c66 0 122 -35 146 -100l13 91h99l-55 -315c-3 -20 2 -29 19 -29h34l-13 -76h-48c-78 0 -91 27 -91 66v9c-34 -54 -76 -84 -138 -84zM243 77
c71 0 123 60 123 143c0 72 -38 122 -103 122c-74 0 -121 -60 -121 -147c0 -71 38 -118 101 -118z" />
    <glyph glyph-name="adieresis" unicode="&#xe4;" horiz-adv-x="530" 
d="M419 513c-30 0 -59 26 -59 59s29 59 59 59s58 -26 58 -59s-28 -59 -58 -59zM229 513c-30 0 -58 26 -58 59s28 59 58 59c31 0 59 -26 59 -59s-28 -59 -59 -59zM208 -9c-96 0 -169 79 -169 202c0 145 93 236 203 236c66 0 122 -35 146 -100l13 91h99l-55 -315
c-3 -20 2 -29 19 -29h34l-13 -76h-48c-78 0 -91 27 -91 66v9c-34 -54 -76 -84 -138 -84zM243 77c71 0 123 60 123 143c0 72 -38 122 -103 122c-74 0 -121 -60 -121 -147c0 -71 38 -118 101 -118z" />
    <glyph glyph-name="agrave" unicode="&#xe0;" horiz-adv-x="530" 
d="M254 499l-89 190h115l50 -190h-76zM208 -9c-96 0 -169 79 -169 202c0 145 93 236 203 236c66 0 122 -35 146 -100l13 91h99l-55 -315c-3 -20 2 -29 19 -29h34l-13 -76h-48c-78 0 -91 27 -91 66v9c-34 -54 -76 -84 -138 -84zM243 77c71 0 123 60 123 143
c0 72 -38 122 -103 122c-74 0 -121 -60 -121 -147c0 -71 38 -118 101 -118z" />
    <glyph glyph-name="aring" unicode="&#xe5;" horiz-adv-x="530" 
d="M318 479c-64 0 -114 50 -114 109c0 61 50 110 114 110c65 0 114 -49 114 -110c0 -59 -49 -109 -114 -109zM208 -9c-96 0 -169 79 -169 202c0 145 93 236 203 236c66 0 122 -35 146 -100l13 91h99l-55 -315c-3 -20 2 -29 19 -29h34l-13 -76h-48c-78 0 -91 27 -91 66v9
c-34 -54 -76 -84 -138 -84zM318 537c28 0 48 20 48 51c0 32 -20 52 -48 52c-27 0 -48 -20 -48 -52c0 -31 21 -51 48 -51zM243 77c71 0 123 60 123 143c0 72 -38 122 -103 122c-74 0 -121 -60 -121 -147c0 -71 38 -118 101 -118z" />
    <glyph glyph-name="atilde" unicode="&#xe3;" horiz-adv-x="530" 
d="M228 496l-68 7c12 84 52 125 102 125c27 0 46 -12 63 -26c22 -16 33 -27 46 -27c19 0 28 14 37 53l68 -8c-11 -83 -51 -125 -103 -125c-26 0 -46 12 -63 26c-21 17 -31 28 -46 28c-18 0 -28 -15 -36 -53zM208 -9c-96 0 -169 79 -169 202c0 145 93 236 203 236
c66 0 122 -35 146 -100l13 91h99l-55 -315c-3 -20 2 -29 19 -29h34l-13 -76h-48c-78 0 -91 27 -91 66v9c-34 -54 -76 -84 -138 -84zM243 77c71 0 123 60 123 143c0 72 -38 122 -103 122c-74 0 -121 -60 -121 -147c0 -71 38 -118 101 -118z" />
    <glyph glyph-name="ccedilla" unicode="&#xe7;" horiz-adv-x="454" 
d="M187 0c-88 26 -146 102 -146 203c0 131 98 226 229 226c80 0 135 -34 168 -80l-72 -57c-21 31 -54 50 -97 50c-76 0 -126 -59 -126 -139c0 -73 41 -126 111 -126c51 0 79 22 96 37l58 -65c-33 -32 -82 -58 -154 -58h-11l-6 -38c37 -6 73 -38 73 -91
c0 -63 -48 -98 -102 -98c-58 0 -93 27 -109 61l52 29c9 -17 22 -33 51 -33c27 0 44 16 44 42c0 25 -14 44 -48 44h-27z" />
    <glyph glyph-name="eacute" unicode="&#xe9;" horiz-adv-x="506" 
d="M253 499l89 190h120l-131 -190h-78zM143 177c6 -59 49 -104 124 -104c56 0 91 21 117 44l59 -63c-45 -39 -99 -63 -177 -63c-135 0 -224 87 -224 211c0 134 106 227 232 227c142 0 217 -107 199 -252h-330zM146 245h232c-1 59 -37 104 -107 104c-66 0 -111 -40 -125 -104
z" />
    <glyph glyph-name="ecircumflex" unicode="&#xea;" horiz-adv-x="506" 
d="M143 498l176 204h10l105 -204h-78l-49 88l-80 -88h-84zM143 177c6 -59 49 -104 124 -104c56 0 91 21 117 44l59 -63c-45 -39 -99 -63 -177 -63c-135 0 -224 87 -224 211c0 134 106 227 232 227c142 0 217 -107 199 -252h-330zM146 245h232c-1 59 -37 104 -107 104
c-66 0 -111 -40 -125 -104z" />
    <glyph glyph-name="edieresis" unicode="&#xeb;" horiz-adv-x="506" 
d="M403 513c-30 0 -59 26 -59 59s29 59 59 59s58 -26 58 -59s-28 -59 -58 -59zM213 513c-30 0 -58 26 -58 59s28 59 58 59c31 0 59 -26 59 -59s-28 -59 -59 -59zM143 177c6 -59 49 -104 124 -104c56 0 91 21 117 44l59 -63c-45 -39 -99 -63 -177 -63
c-135 0 -224 87 -224 211c0 134 106 227 232 227c142 0 217 -107 199 -252h-330zM146 245h232c-1 59 -37 104 -107 104c-66 0 -111 -40 -125 -104z" />
    <glyph glyph-name="egrave" unicode="&#xe8;" horiz-adv-x="506" 
d="M241 499l-89 190h115l50 -190h-76zM143 177c6 -59 49 -104 124 -104c56 0 91 21 117 44l59 -63c-45 -39 -99 -63 -177 -63c-135 0 -224 87 -224 211c0 134 106 227 232 227c142 0 217 -107 199 -252h-330zM146 245h232c-1 59 -37 104 -107 104c-66 0 -111 -40 -125 -104z
" />
    <glyph glyph-name="iacute" unicode="&#xed;" horiz-adv-x="245" 
d="M122 499l89 190h120l-131 -190h-78zM140 0c-78 0 -105 26 -90 107l54 313h100l-56 -315c-3 -20 2 -29 19 -29h35l-13 -76h-49z" />
    <glyph glyph-name="icircumflex" unicode="&#xee;" horiz-adv-x="245" 
d="M22 498l176 204h10l105 -204h-78l-49 88l-80 -88h-84zM140 0c-78 0 -105 26 -90 107l54 313h100l-56 -315c-3 -20 2 -29 19 -29h35l-13 -76h-49z" />
    <glyph glyph-name="idieresis" unicode="&#xef;" horiz-adv-x="245" 
d="M278 513c-30 0 -59 26 -59 59s29 59 59 59s58 -26 58 -59s-28 -59 -58 -59zM88 513c-30 0 -58 26 -58 59s28 59 58 59c31 0 59 -26 59 -59s-28 -59 -59 -59zM140 0c-78 0 -105 26 -90 107l54 313h100l-56 -315c-3 -20 2 -29 19 -29h35l-13 -76h-49z" />
    <glyph glyph-name="igrave" unicode="&#xec;" horiz-adv-x="245" 
d="M133 499l-89 190h115l50 -190h-76zM140 0c-78 0 -105 26 -90 107l54 313h100l-56 -315c-3 -20 2 -29 19 -29h35l-13 -76h-49z" />
    <glyph glyph-name="ntilde" unicode="&#xf1;" horiz-adv-x="513" 
d="M210 496l-68 7c12 84 52 125 102 125c27 0 46 -12 63 -26c22 -16 33 -27 46 -27c19 0 28 14 37 53l68 -8c-11 -83 -51 -125 -103 -125c-26 0 -46 12 -63 26c-21 17 -31 28 -46 28c-18 0 -28 -15 -36 -53zM26 0l74 420h99l-17 -80c32 55 79 89 143 89
c92 0 150 -75 129 -192l-23 -132c-3 -20 2 -29 19 -29h34l-13 -76h-48c-78 0 -105 26 -90 107l21 125c12 69 -14 108 -73 108c-64 0 -102 -35 -115 -108l-41 -232h-99z" />
    <glyph glyph-name="oacute" unicode="&#xf3;" horiz-adv-x="525" 
d="M250 499l89 190h120l-131 -190h-78zM256 -9c-121 0 -215 91 -215 211c0 133 102 227 230 227c121 0 215 -90 215 -212c0 -133 -101 -226 -230 -226zM259 76c76 0 125 60 125 142c0 74 -45 125 -116 125c-75 0 -125 -60 -125 -143c0 -73 46 -124 116 -124z" />
    <glyph glyph-name="ocircumflex" unicode="&#xf4;" horiz-adv-x="525" 
d="M154 498l176 204h10l105 -204h-78l-49 88l-80 -88h-84zM256 -9c-121 0 -215 91 -215 211c0 133 102 227 230 227c121 0 215 -90 215 -212c0 -133 -101 -226 -230 -226zM259 76c76 0 125 60 125 142c0 74 -45 125 -116 125c-75 0 -125 -60 -125 -143
c0 -73 46 -124 116 -124z" />
    <glyph glyph-name="odieresis" unicode="&#xf6;" horiz-adv-x="525" 
d="M411 513c-30 0 -59 26 -59 59s29 59 59 59s58 -26 58 -59s-28 -59 -58 -59zM221 513c-30 0 -58 26 -58 59s28 59 58 59c31 0 59 -26 59 -59s-28 -59 -59 -59zM256 -9c-121 0 -215 91 -215 211c0 133 102 227 230 227c121 0 215 -90 215 -212c0 -133 -101 -226 -230 -226z
M259 76c76 0 125 60 125 142c0 74 -45 125 -116 125c-75 0 -125 -60 -125 -143c0 -73 46 -124 116 -124z" />
    <glyph glyph-name="ograve" unicode="&#xf2;" horiz-adv-x="525" 
d="M257 499l-89 190h115l50 -190h-76zM256 -9c-121 0 -215 91 -215 211c0 133 102 227 230 227c121 0 215 -90 215 -212c0 -133 -101 -226 -230 -226zM259 76c76 0 125 60 125 142c0 74 -45 125 -116 125c-75 0 -125 -60 -125 -143c0 -73 46 -124 116 -124z" />
    <glyph glyph-name="otilde" unicode="&#xf5;" horiz-adv-x="525" 
d="M210 496l-68 7c12 84 52 125 102 125c27 0 46 -12 63 -26c22 -16 33 -27 46 -27c19 0 28 14 37 53l68 -8c-11 -83 -51 -125 -103 -125c-26 0 -46 12 -63 26c-21 17 -31 28 -46 28c-18 0 -28 -15 -36 -53zM256 -9c-121 0 -215 91 -215 211c0 133 102 227 230 227
c121 0 215 -90 215 -212c0 -133 -101 -226 -230 -226zM259 76c76 0 125 60 125 142c0 74 -45 125 -116 125c-75 0 -125 -60 -125 -143c0 -73 46 -124 116 -124z" />
    <glyph glyph-name="scaron" unicode="&#x161;" horiz-adv-x="407" 
d="M228 484l-106 205h79l49 -90l80 90h83l-175 -205h-10zM186 -9c-86 0 -145 39 -176 90l71 48c24 -36 55 -59 107 -59c49 0 68 18 68 45s-22 35 -85 65c-58 29 -100 62 -100 126c0 80 64 123 146 123c64 0 111 -26 140 -63l-65 -54c-17 22 -37 40 -76 40
c-31 0 -53 -14 -53 -39s21 -37 69 -59c66 -31 119 -60 119 -136c0 -74 -55 -127 -165 -127z" />
    <glyph glyph-name="uacute" unicode="&#xfa;" horiz-adv-x="497" 
d="M248 499l89 190h120l-131 -190h-78zM228 -9c-121 0 -193 76 -170 206l39 223h99l-41 -231c-15 -82 20 -112 78 -112c60 0 89 29 102 103l42 240h99l-44 -252c-21 -119 -88 -177 -204 -177z" />
    <glyph glyph-name="ucircumflex" unicode="&#xfb;" horiz-adv-x="497" 
d="M139 498l176 204h10l105 -204h-78l-49 88l-80 -88h-84zM228 -9c-121 0 -193 76 -170 206l39 223h99l-41 -231c-15 -82 20 -112 78 -112c60 0 89 29 102 103l42 240h99l-44 -252c-21 -119 -88 -177 -204 -177z" />
    <glyph glyph-name="udieresis" unicode="&#xfc;" horiz-adv-x="497" 
d="M390 513c-30 0 -59 26 -59 59s29 59 59 59s58 -26 58 -59s-28 -59 -58 -59zM200 513c-30 0 -58 26 -58 59s28 59 58 59c31 0 59 -26 59 -59s-28 -59 -59 -59zM228 -9c-121 0 -193 76 -170 206l39 223h99l-41 -231c-15 -82 20 -112 78 -112c60 0 89 29 102 103l42 240h99
l-44 -252c-21 -119 -88 -177 -204 -177z" />
    <glyph glyph-name="ugrave" unicode="&#xf9;" horiz-adv-x="497" 
d="M243 499l-89 190h115l50 -190h-76zM228 -9c-121 0 -193 76 -170 206l39 223h99l-41 -231c-15 -82 20 -112 78 -112c60 0 89 29 102 103l42 240h99l-44 -252c-21 -119 -88 -177 -204 -177z" />
    <glyph glyph-name="yacute" unicode="&#xfd;" horiz-adv-x="465" 
d="M241 499l89 190h120l-131 -190h-78zM15 -212l149 256l-111 376h105l56 -209c9 -32 13 -85 13 -85s15 51 33 83l120 211h105l-365 -632h-105z" />
    <glyph glyph-name="ydieresis" unicode="&#xff;" horiz-adv-x="465" 
d="M381 513c-30 0 -59 26 -59 59s29 59 59 59s58 -26 58 -59s-28 -59 -58 -59zM191 513c-30 0 -58 26 -58 59s28 59 58 59c31 0 59 -26 59 -59s-28 -59 -59 -59zM15 -212l149 256l-111 376h105l56 -209c9 -32 13 -85 13 -85s15 51 33 83l120 211h105l-365 -632h-105z" />
    <glyph glyph-name="zcaron" unicode="&#x17e;" horiz-adv-x="428" 
d="M261 484l-106 205h79l49 -90l80 90h83l-175 -205h-10zM5 0v11l261 327h-188l15 82h339v-11l-261 -328h200l-15 -81h-351z" />
    <glyph glyph-name=".null" horiz-adv-x="0" 
 />
    <glyph glyph-name="CR" unicode="&#xd;" horiz-adv-x="219" 
 />
    <glyph glyph-name="lessequal" unicode="&#x2264;" 
d="M119 181c-37 0 -68 29 -68 70c0 40 31 68 68 68c36 0 68 -28 68 -68c0 -41 -32 -70 -68 -70z" />
    <glyph glyph-name="greaterequal" unicode="&#x2265;" 
d="M119 181c-37 0 -68 29 -68 70c0 40 31 68 68 68c36 0 68 -28 68 -68c0 -41 -32 -70 -68 -70z" />
    <glyph glyph-name="partialdiff" unicode="&#x2202;" 
d="M119 181c-37 0 -68 29 -68 70c0 40 31 68 68 68c36 0 68 -28 68 -68c0 -41 -32 -70 -68 -70z" />
    <glyph glyph-name="summation" unicode="&#x2211;" horiz-adv-x="782" 
d="M452 3c32 -29 66 -54 116 -54c43 0 72 23 90 44l68 -60c-33 -43 -82 -75 -159 -75c-93 0 -154 61 -209 108c-40 32 -78 63 -127 63c-52 0 -87 -33 -113 -71l-71 59c24 37 59 67 107 82c-52 56 -84 132 -84 224c0 219 165 365 363 365c184 0 327 -136 327 -331
c0 -199 -130 -331 -308 -354zM400 83c150 0 254 114 254 276c0 142 -92 237 -224 237c-149 0 -254 -113 -254 -275c0 -141 91 -238 224 -238z" />
    <glyph glyph-name="product" unicode="&#x220f;" 
d="M119 181c-37 0 -68 29 -68 70c0 40 31 68 68 68c36 0 68 -28 68 -68c0 -41 -32 -70 -68 -70z" />
    <glyph glyph-name="pi" unicode="&#x3c0;" 
d="M119 181c-37 0 -68 29 -68 70c0 40 31 68 68 68c36 0 68 -28 68 -68c0 -41 -32 -70 -68 -70z" />
    <glyph glyph-name="integral" unicode="&#x222b;" 
d="M119 181c-37 0 -68 29 -68 70c0 40 31 68 68 68c36 0 68 -28 68 -68c0 -41 -32 -70 -68 -70z" />
    <glyph glyph-name="Omega" unicode="&#x3a9;" 
d="M119 181c-37 0 -68 29 -68 70c0 40 31 68 68 68c36 0 68 -28 68 -68c0 -41 -32 -70 -68 -70z" />
    <glyph glyph-name="Omega" unicode="&#x2126;" 
d="M119 181c-37 0 -68 29 -68 70c0 40 31 68 68 68c36 0 68 -28 68 -68c0 -41 -32 -70 -68 -70z" />
    <glyph glyph-name="radical" unicode="&#x221a;" 
d="M119 181c-37 0 -68 29 -68 70c0 40 31 68 68 68c36 0 68 -28 68 -68c0 -41 -32 -70 -68 -70z" />
    <glyph glyph-name="approxequal" unicode="&#x2248;" 
d="M119 181c-37 0 -68 29 -68 70c0 40 31 68 68 68c36 0 68 -28 68 -68c0 -41 -32 -70 -68 -70z" />
    <glyph glyph-name="Delta" unicode="&#x394;" 
d="M119 181c-37 0 -68 29 -68 70c0 40 31 68 68 68c36 0 68 -28 68 -68c0 -41 -32 -70 -68 -70z" />
    <glyph glyph-name="Delta" unicode="&#x2206;" 
d="M119 181c-37 0 -68 29 -68 70c0 40 31 68 68 68c36 0 68 -28 68 -68c0 -41 -32 -70 -68 -70z" />
    <glyph glyph-name="nbspace" unicode="&#xa0;" horiz-adv-x="179" 
 />
    <glyph glyph-name="lozenge" unicode="&#x25ca;" 
d="M119 181c-37 0 -68 29 -68 70c0 40 31 68 68 68c36 0 68 -28 68 -68c0 -41 -32 -70 -68 -70z" />
    <glyph glyph-name="apple" 
d="M119 181c-37 0 -68 29 -68 70c0 40 31 68 68 68c36 0 68 -28 68 -68c0 -41 -32 -70 -68 -70z" />
    <glyph glyph-name="Euro" unicode="&#x20ac;" horiz-adv-x="727" 
d="M135 366h-68l13 76h70c43 151 165 246 315 246c123 0 200 -54 245 -139l-83 -47c-32 60 -79 96 -165 96c-97 0 -171 -59 -204 -156h277l-13 -76h-281c-1 -15 -2 -31 -2 -48c0 -8 0 -17 1 -25h270l-13 -76h-245c26 -86 88 -136 180 -136c84 0 141 42 177 92l76 -58
c-57 -73 -131 -124 -256 -124c-142 0 -250 88 -284 226h-103l13 76h79c-1 8 -1 16 -1 24c0 17 1 33 2 49z" />
    <glyph glyph-name="infinity" horiz-adv-x="797" 
d="M734 520c-33 0 -62 25 -62 63c0 36 28 61 62 61c33 0 62 -25 62 -61c0 -38 -28 -63 -62 -63zM481 337l-72 -411c-18 -100 -57 -115 -134 -115h-50l14 77h30c20 0 35 7 42 45l71 404h-160l-76 -434c-17 -100 -57 -115 -134 -115h-55l15 77h35c20 0 35 6 42 45l75 427h-68
l15 83h68l27 154c17 95 63 141 144 141c45 0 74 -14 96 -38l-53 -67c-11 11 -23 16 -39 16c-25 0 -42 -12 -50 -55l-27 -151h160l31 174c17 94 63 141 145 141c49 0 81 -17 107 -47l-63 -61c-11 13 -20 19 -40 19c-25 0 -43 -12 -51 -56l-30 -170h259l-56 -315
c-3 -20 2 -29 19 -29h36l-14 -76h-49c-78 0 -105 26 -90 107l40 230h-160z" />
    <glyph glyph-name="notequal" horiz-adv-x="597" 
d="M383 337h-161l-76 -434c-17 -100 -57 -115 -134 -115h-55l15 77h35c20 0 35 6 42 45l75 427h-68l15 83h68l27 154c17 95 63 141 144 141c45 0 74 -14 96 -38l-53 -67c-11 11 -23 16 -39 16c-25 0 -42 -12 -50 -55l-27 -151h161l30 173c17 95 64 142 147 142
c53 0 88 -19 115 -54l-64 -59c-11 14 -24 24 -47 24c-26 0 -45 -12 -53 -57l-30 -169h109l-15 -83h-109l-72 -411c-18 -100 -57 -115 -134 -115h-50l14 77h30c20 0 36 7 43 45z" />
    </font>
</defs>
</svg>
